<svg width="20" height="20" viewBox="0 0 20 20" fill="none" xmlns="http://www.w3.org/2000/svg">
<g id="home">
<path id="Vector" fill-rule="evenodd" clip-rule="evenodd" d="M17.0659 6.31531L12.5775 2.60427C11.0656 1.35424 8.93444 1.35424 7.42255 2.60427L2.93416 6.31531C2.12551 6.98391 1.66669 7.99762 1.66669 9.05533V14.8425C1.66669 16.7218 3.11181 18.3334 5.00002 18.3334H6.66669C7.58716 18.3334 8.33335 17.5872 8.33335 16.6667V13.9566C8.33335 12.9003 9.12677 12.1323 10 12.1323C10.8733 12.1323 11.6667 12.9003 11.6667 13.9566V16.6667C11.6667 17.5872 12.4129 18.3334 13.3334 18.3334H15C16.8883 18.3334 18.3334 16.7218 18.3334 14.8425V9.05533C18.3334 7.99763 17.8745 6.98391 17.0659 6.31531Z" fill="white"/>
</g>
</svg>
