<svg width="20" height="20" viewBox="0 0 20 20" fill="none" xmlns="http://www.w3.org/2000/svg">
<path d="M17.6142 9.59914L15.3425 8.94997C14.3195 8.66156 13.3877 8.11545 12.6361 7.36389C11.8845 6.61233 11.3384 5.68047 11.05 4.65747L10.4008 2.38581C10.3682 2.30633 10.3127 2.23835 10.2413 2.19051C10.1699 2.14267 10.0859 2.11713 10 2.11713C9.91409 2.11713 9.8301 2.14267 9.75873 2.19051C9.68736 2.23835 9.63182 2.30633 9.59918 2.38581L8.95001 4.65747C8.6616 5.68047 8.11549 6.61233 7.36392 7.36389C6.61236 8.11545 5.6805 8.66156 4.65751 8.94997L2.38584 9.59914C2.29862 9.6239 2.22185 9.67643 2.16719 9.74877C2.11252 9.82111 2.08295 9.9093 2.08295 9.99997C2.08295 10.0906 2.11252 10.1788 2.16719 10.2512C2.22185 10.3235 2.29862 10.3761 2.38584 10.4008L4.65751 11.05C5.6805 11.3384 6.61236 11.8845 7.36392 12.6361C8.11549 13.3876 8.6616 14.3195 8.95001 15.3425L9.59918 17.6141C9.62393 17.7014 9.67647 17.7781 9.74881 17.8328C9.82114 17.8875 9.90934 17.917 10 17.917C10.0907 17.917 10.1789 17.8875 10.2512 17.8328C10.3236 17.7781 10.3761 17.7014 10.4008 17.6141L11.05 15.3425C11.3384 14.3195 11.8845 13.3876 12.6361 12.6361C13.3877 11.8845 14.3195 11.3384 15.3425 11.05L17.6142 10.4008C17.7014 10.3761 17.7782 10.3235 17.8328 10.2512C17.8875 10.1788 17.9171 10.0906 17.9171 9.99997C17.9171 9.9093 17.8875 9.82111 17.8328 9.74877C17.7782 9.67643 17.7014 9.6239 17.6142 9.59914Z" fill="white"/>
</svg>
