<svg width="76" height="12" viewBox="0 0 76 12" fill="none" xmlns="http://www.w3.org/2000/svg">
<g clip-path="url(#clip0_2329_3253)">
<path d="M11.6815 4.292L7.99251 3.7285L6.33901 0.206497C6.21551 -0.0565032 5.78401 -0.0565032 5.66051 0.206497L4.00751 3.7285L0.318514 4.292C0.0155136 4.3385 -0.105486 4.707 0.107014 4.9245L2.78701 7.6715L2.15351 11.555C2.10301 11.8635 2.43251 12.095 2.70501 11.9435L6.00001 10.1225L9.29501 11.944C9.56501 12.094 9.89751 11.867 9.84651 11.5555L9.21301 7.672L11.893 4.925C12.1055 4.707 11.984 4.3385 11.6815 4.292Z" fill="#FFCB14"/>
</g>
<g clip-path="url(#clip1_2329_3253)">
<path d="M27.6815 4.292L23.9925 3.7285L22.339 0.206497C22.2155 -0.0565032 21.784 -0.0565032 21.6605 0.206497L20.0075 3.7285L16.3185 4.292C16.0155 4.3385 15.8945 4.707 16.107 4.9245L18.787 7.6715L18.1535 11.555C18.103 11.8635 18.4325 12.095 18.705 11.9435L22 10.1225L25.295 11.944C25.565 12.094 25.8975 11.867 25.8465 11.5555L25.213 7.672L27.893 4.925C28.1055 4.707 27.984 4.3385 27.6815 4.292Z" fill="#FFCB14"/>
</g>
<g clip-path="url(#clip2_2329_3253)">
<path d="M43.6815 4.292L39.9925 3.7285L38.339 0.206497C38.2155 -0.0565032 37.784 -0.0565032 37.6605 0.206497L36.0075 3.7285L32.3185 4.292C32.0155 4.3385 31.8945 4.707 32.107 4.9245L34.787 7.6715L34.1535 11.555C34.103 11.8635 34.4325 12.095 34.705 11.9435L38 10.1225L41.295 11.944C41.565 12.094 41.8975 11.867 41.8465 11.5555L41.213 7.672L43.893 4.925C44.1055 4.707 43.984 4.3385 43.6815 4.292Z" fill="#FFCB14"/>
</g>
<g clip-path="url(#clip3_2329_3253)">
<path d="M59.6815 4.292L55.9925 3.7285L54.339 0.206497C54.2155 -0.0565032 53.784 -0.0565032 53.6605 0.206497L52.0075 3.7285L48.3185 4.292C48.0155 4.3385 47.8945 4.707 48.107 4.9245L50.787 7.6715L50.1535 11.555C50.103 11.8635 50.4325 12.095 50.705 11.9435L54 10.1225L57.295 11.944C57.565 12.094 57.8975 11.867 57.8465 11.5555L57.213 7.672L59.893 4.925C60.1055 4.707 59.984 4.3385 59.6815 4.292Z" fill="#FFCB14"/>
</g>
<g clip-path="url(#clip4_2329_3253)">
<path d="M75.6815 4.292L71.9925 3.7285L70.339 0.206497C70.2155 -0.0565032 69.784 -0.0565032 69.6605 0.206497L68.0075 3.7285L64.3185 4.292C64.0155 4.3385 63.8945 4.707 64.107 4.9245L66.787 7.6715L66.1535 11.555C66.103 11.8635 66.4325 12.095 66.705 11.9435L70 10.1225L73.295 11.944C73.565 12.094 73.8975 11.867 73.8465 11.5555L73.213 7.672L75.893 4.925C76.1055 4.707 75.984 4.3385 75.6815 4.292Z" fill="#FFCB14"/>
</g>
<defs>
<clipPath id="clip0_2329_3253">
<rect width="12" height="12" fill="white"/>
</clipPath>
<clipPath id="clip1_2329_3253">
<rect width="12" height="12" fill="white" transform="translate(16)"/>
</clipPath>
<clipPath id="clip2_2329_3253">
<rect width="12" height="12" fill="white" transform="translate(32)"/>
</clipPath>
<clipPath id="clip3_2329_3253">
<rect width="12" height="12" fill="white" transform="translate(48)"/>
</clipPath>
<clipPath id="clip4_2329_3253">
<rect width="12" height="12" fill="white" transform="translate(64)"/>
</clipPath>
</defs>
</svg>
