<svg width="324" height="70" viewBox="0 0 324 70" fill="none" xmlns="http://www.w3.org/2000/svg">
<g opacity="0.9" filter="url(#filter0_d_510_49)">
<path d="M17.627 0.917969C20.1882 0.917969 22.2799 1.72917 23.9023 3.35156C25.5339 4.96484 26.3496 7.00651 26.3496 9.47656C26.3496 10.1966 26.2676 10.9531 26.1035 11.7461C25.4746 14.7174 23.875 17.2559 21.3047 19.3613C18.7435 21.4577 15.9863 22.5059 13.0332 22.5059C10.4902 22.5059 8.39844 21.7083 6.75781 20.1133C5.11719 18.5091 4.29688 16.472 4.29688 14.002C4.29688 13.291 4.37891 12.5391 4.54297 11.7461C5.17188 8.73828 6.75781 6.18164 9.30078 4.07617C11.8529 1.9707 14.6283 0.917969 17.627 0.917969ZM16.834 4.63672C14.9199 4.63672 13.138 5.32031 11.4883 6.6875C9.83854 8.05469 8.80404 9.71354 8.38477 11.6641C8.27539 12.1562 8.2207 12.6439 8.2207 13.127C8.2207 14.7311 8.74479 16.0755 9.79297 17.1602C10.8503 18.2357 12.1901 18.7734 13.8125 18.7734C15.6992 18.7734 17.4766 18.0762 19.1445 16.6816C20.8216 15.278 21.8652 13.6055 22.2754 11.6641C22.3848 11.1445 22.4395 10.6387 22.4395 10.1465C22.4395 8.56966 21.9199 7.25716 20.8809 6.20898C19.8418 5.16081 18.4928 4.63672 16.834 4.63672ZM31.3398 1.31445H35.168L32.4336 14.2207L32.2285 15.2188C32.1556 15.6289 32.1191 15.957 32.1191 16.2031V16.5449C32.1191 16.6361 32.1237 16.709 32.1328 16.7637C32.151 16.8092 32.1829 16.8913 32.2285 17.0098C32.3926 17.5475 32.6797 17.9759 33.0898 18.2949C33.5 18.6139 33.9967 18.7734 34.5801 18.7734C35.0905 18.7734 35.61 18.6458 36.1387 18.3906C36.6764 18.1354 37.123 17.7936 37.4785 17.3652C37.834 16.9277 38.1165 16.4173 38.3262 15.834C38.3809 15.6608 38.4355 15.4512 38.4902 15.2051C38.554 14.9499 38.6315 14.6217 38.7227 14.2207L41.4707 1.31445H45.3125L42.5645 14.2207C42.3184 15.4421 42.0267 16.4264 41.6895 17.1738C41.252 18.1855 40.6458 19.0651 39.8711 19.8125C39.0143 20.6328 38.0436 21.2891 36.959 21.7812C35.8835 22.2643 34.8307 22.5059 33.8008 22.5059C32.8346 22.5059 31.9277 22.278 31.0801 21.8223C30.2415 21.3574 29.5625 20.7467 29.043 19.9902C28.7695 19.5892 28.5553 19.1335 28.4004 18.623C28.2728 18.1126 28.209 17.5931 28.209 17.0645C28.209 16.709 28.2135 16.4629 28.2227 16.3262C28.2409 16.1803 28.2728 15.9661 28.3184 15.6836C28.3366 15.5378 28.3685 15.3372 28.4141 15.082C28.4596 14.8177 28.5189 14.5306 28.5918 14.2207L31.3398 1.31445ZM44.875 22L49.2773 1.31445H55.2656C55.849 1.31445 56.373 1.33268 56.8379 1.36914C57.3118 1.4056 57.7174 1.46484 58.0547 1.54688C58.9844 1.76562 59.7454 2.17122 60.3379 2.76367C60.7936 3.2194 61.1536 3.77995 61.418 4.44531C61.5456 4.79167 61.6413 5.12891 61.7051 5.45703C61.7689 5.77604 61.8008 6.13151 61.8008 6.52344C61.8008 6.96094 61.7507 7.40755 61.6504 7.86328C61.5046 8.62891 61.181 9.42643 60.6797 10.2559C60.1875 11.0853 59.6224 11.7871 58.9844 12.3613C58.4102 12.8809 57.7585 13.3092 57.0293 13.6465C56.3913 13.9382 55.6803 14.1751 54.8965 14.3574L58.875 22H54.1445L50.3984 14.0703L48.7168 22H44.875ZM51.0137 11.1582H53.1055C53.4701 11.1582 53.7708 11.1491 54.0078 11.1309C54.2448 11.1126 54.4954 11.0716 54.7598 11.0078C55.3978 10.8711 55.931 10.6341 56.3594 10.2969C57.1068 9.70443 57.5807 8.95703 57.7812 8.05469L57.8359 7.67188L57.8496 7.41211C57.8496 6.71029 57.6126 6.14974 57.1387 5.73047C56.8197 5.4388 56.4186 5.23828 55.9355 5.12891C55.7806 5.10156 55.5801 5.07878 55.334 5.06055C55.097 5.04232 54.8053 5.0332 54.459 5.0332H52.3262L51.0137 11.1582ZM73.2852 22L71.6582 1.31445H75.582L76.1152 15.7793L82.7461 1.31445H85.5488L85.959 15.7793L92.6855 1.31445H96.6094L86.1914 22H83.1426L82.6914 8.31445L76.334 22H73.2852ZM92.4668 22L105.496 1.31445H108.49L112.797 22H108.572L107.479 16.6543H100.137L96.7051 22H92.4668ZM102.324 12.9219H106.754L105.852 6.66016L102.324 12.9219ZM119.893 22L121.52 14.3574L117.486 1.31445H121.711L124.199 10.8301L130.721 1.31445H134.932L125.348 14.3574L123.721 22H119.893ZM154.318 0.917969C156.88 0.917969 158.971 1.72917 160.594 3.35156C162.225 4.96484 163.041 7.00651 163.041 9.47656C163.041 10.1966 162.959 10.9531 162.795 11.7461C162.166 14.7174 160.566 17.2559 157.996 19.3613C155.435 21.4577 152.678 22.5059 149.725 22.5059C147.182 22.5059 145.09 21.7083 143.449 20.1133C141.809 18.5091 140.988 16.472 140.988 14.002C140.988 13.291 141.07 12.5391 141.234 11.7461C141.863 8.73828 143.449 6.18164 145.992 4.07617C148.544 1.9707 151.32 0.917969 154.318 0.917969ZM153.525 4.63672C151.611 4.63672 149.829 5.32031 148.18 6.6875C146.53 8.05469 145.495 9.71354 145.076 11.6641C144.967 12.1562 144.912 12.6439 144.912 13.127C144.912 14.7311 145.436 16.0755 146.484 17.1602C147.542 18.2357 148.882 18.7734 150.504 18.7734C152.391 18.7734 154.168 18.0762 155.836 16.6816C157.513 15.278 158.557 13.6055 158.967 11.6641C159.076 11.1445 159.131 10.6387 159.131 10.1465C159.131 8.56966 158.611 7.25716 157.572 6.20898C156.533 5.16081 155.184 4.63672 153.525 4.63672ZM163.629 22L168.031 1.31445H178.559L177.779 5.0332H171.08L170.068 9.79102H176.453L175.646 13.5098H169.262L167.471 22H163.629ZM184.656 16.1758H188.662L188.594 16.75C188.594 17.3698 188.812 17.862 189.25 18.2266C189.688 18.5911 190.266 18.7734 190.986 18.7734C191.715 18.7734 192.395 18.5319 193.023 18.0488C193.661 17.5566 194.062 16.9323 194.227 16.1758C194.281 15.9115 194.309 15.6699 194.309 15.4512C194.309 14.722 193.994 14.1113 193.365 13.6191C192.973 13.3184 192.331 13.013 191.438 12.7031C190.544 12.3932 189.929 12.1471 189.592 11.9648C189.036 11.6641 188.566 11.2676 188.184 10.7754C187.582 9.98242 187.281 9.01628 187.281 7.87695C187.281 7.63997 187.286 7.4668 187.295 7.35742C187.304 7.23893 187.336 7.05208 187.391 6.79688C187.746 5.11979 188.644 3.7207 190.084 2.59961C191.533 1.47852 193.092 0.917969 194.76 0.917969C196.154 0.917969 197.321 1.36458 198.26 2.25781C199.208 3.15104 199.682 4.26758 199.682 5.60742C199.682 6.02669 199.636 6.42318 199.545 6.79688H195.607L195.635 6.57812V6.40039C195.635 5.88086 195.457 5.45703 195.102 5.12891C194.755 4.80078 194.304 4.63672 193.748 4.63672C193.146 4.63672 192.609 4.8418 192.135 5.25195C191.67 5.65299 191.369 6.17708 191.232 6.82422L191.178 7.30273C191.178 7.83138 191.406 8.26888 191.861 8.61523C192.144 8.85221 192.627 9.09375 193.311 9.33984C194.441 9.75911 195.092 10.0143 195.266 10.1055C195.94 10.4154 196.501 10.7982 196.947 11.2539C197.84 12.1016 198.287 13.1725 198.287 14.4668C198.287 14.9134 198.232 15.4102 198.123 15.957C197.74 17.7891 196.751 19.3385 195.156 20.6055C193.561 21.8724 191.843 22.5059 190.002 22.5059C188.443 22.5059 187.14 22.0319 186.092 21.084C185.044 20.127 184.52 18.9102 184.52 17.4336C184.52 17.0143 184.565 16.5951 184.656 16.1758ZM199.504 22L203.906 1.31445H207.734L205.971 9.59961H213.367L215.131 1.31445H218.973L214.57 22H210.742L212.588 13.3184H205.191L203.346 22H199.504ZM232.768 0.917969C235.329 0.917969 237.421 1.72917 239.043 3.35156C240.674 4.96484 241.49 7.00651 241.49 9.47656C241.49 10.1966 241.408 10.9531 241.244 11.7461C240.615 14.7174 239.016 17.2559 236.445 19.3613C233.884 21.4577 231.127 22.5059 228.174 22.5059C225.631 22.5059 223.539 21.7083 221.898 20.1133C220.258 18.5091 219.438 16.472 219.438 14.002C219.438 13.291 219.52 12.5391 219.684 11.7461C220.312 8.73828 221.898 6.18164 224.441 4.07617C226.993 1.9707 229.769 0.917969 232.768 0.917969ZM231.975 4.63672C230.061 4.63672 228.279 5.32031 226.629 6.6875C224.979 8.05469 223.945 9.71354 223.525 11.6641C223.416 12.1562 223.361 12.6439 223.361 13.127C223.361 14.7311 223.885 16.0755 224.934 17.1602C225.991 18.2357 227.331 18.7734 228.953 18.7734C230.84 18.7734 232.617 18.0762 234.285 16.6816C235.962 15.278 237.006 13.6055 237.416 11.6641C237.525 11.1445 237.58 10.6387 237.58 10.1465C237.58 8.56966 237.061 7.25716 236.021 6.20898C234.982 5.16081 233.633 4.63672 231.975 4.63672ZM246.398 22L244.771 1.31445H248.695L249.229 15.7793L255.859 1.31445H258.662L259.072 15.7793L265.799 1.31445H269.723L259.305 22H256.256L255.805 8.31445L249.447 22H246.398ZM267.289 22L271.691 1.31445H275.52L271.131 22H267.289ZM275.137 22L279.539 1.31445H283.846L289.246 16.4219L292.473 1.31445H296.314L291.912 22H287.66L282.164 6.93359L278.979 22H275.137ZM318.941 7.38477H314.348C313.919 6.53711 313.263 5.86719 312.379 5.375C311.504 4.88281 310.547 4.63672 309.508 4.63672C308.624 4.63672 307.735 4.79167 306.842 5.10156C305.949 5.40234 305.096 5.85352 304.285 6.45508C303.483 7.04753 302.749 7.83138 302.084 8.80664C301.455 9.73633 301.045 10.6797 300.854 11.6367C300.808 11.8281 300.771 12.0423 300.744 12.2793C300.717 12.5072 300.703 12.7533 300.703 13.0176C300.703 14.3574 301.068 15.5013 301.797 16.4492C302.353 17.1966 303.05 17.7708 303.889 18.1719C304.727 18.5729 305.648 18.7734 306.65 18.7734C307.863 18.7734 309.111 18.4316 310.396 17.748C311.682 17.0553 312.721 16.1576 313.514 15.0547H304.859L305.611 11.4453H319.105L319.023 11.8965C318.395 14.8678 316.763 17.3926 314.129 19.4707C311.559 21.4941 308.765 22.5059 305.748 22.5059C303.15 22.5059 300.999 21.7083 299.295 20.1133C297.59 18.5091 296.738 16.4674 296.738 13.9883C296.738 13.2773 296.82 12.5391 296.984 11.7734C297.613 8.77474 299.24 6.21354 301.865 4.08984C303.178 3.03255 304.531 2.23958 305.926 1.71094C307.32 1.18229 308.774 0.917969 310.287 0.917969C312.438 0.917969 314.325 1.50586 315.947 2.68164C317.57 3.84831 318.568 5.41602 318.941 7.38477ZM67.4199 61L71.0293 44.0332H67.2285L68.0078 40.3145H79.5195L78.7266 44.0332H74.8711L71.248 61H67.4199ZM77.0723 61L81.4746 40.3145H85.3027L83.5391 48.5996H90.9355L92.6992 40.3145H96.541L92.1387 61H88.3105L90.1562 52.3184H82.7598L80.9141 61H77.0723ZM94.4219 61L107.451 40.3145H110.445L114.752 61H110.527L109.434 55.6543H102.092L98.6602 61H94.4219ZM104.279 51.9219H108.709L107.807 45.6602L104.279 51.9219ZM118.963 61L122.572 44.0332H118.771L119.551 40.3145H131.062L130.27 44.0332H126.414L122.791 61H118.963ZM140.783 61L139.156 40.3145H143.08L143.613 54.7793L150.244 40.3145H153.047L153.457 54.7793L160.184 40.3145H164.107L153.689 61H150.641L150.189 47.3145L143.832 61H140.783ZM161.674 61L166.076 40.3145H177.191L176.412 44.0332H169.125L168.113 48.791H175.086L174.279 52.5098H167.307L166.295 57.2812H173.582L172.789 61H161.674ZM200.119 55.3672H204.562C203.387 57.2174 201.773 58.7122 199.723 59.8516C197.708 60.9544 195.685 61.5059 193.652 61.5059C191.109 61.5059 189.031 60.6855 187.418 59.0449C185.805 57.4043 184.998 55.3535 184.998 52.8926C184.998 52.1543 185.08 51.4023 185.244 50.6367C185.846 47.7109 187.423 45.1953 189.975 43.0898C191.251 42.0326 192.563 41.2396 193.912 40.7109C195.261 40.1823 196.665 39.918 198.123 39.918C200.219 39.918 202.061 40.4876 203.646 41.627C205.242 42.7663 206.23 44.2975 206.613 46.2207H202.238C201.773 45.4277 201.104 44.7988 200.229 44.334C199.363 43.8691 198.41 43.6367 197.371 43.6367C195.493 43.6367 193.743 44.3385 192.121 45.7422C190.499 47.1458 189.478 48.8229 189.059 50.7734C188.958 51.293 188.908 51.7578 188.908 52.168C188.908 53.7357 189.423 55.0618 190.453 56.1465C191.483 57.2311 192.791 57.7734 194.377 57.7734C195.361 57.7734 196.341 57.5684 197.316 57.1582C198.292 56.7389 199.226 56.1419 200.119 55.3672ZM204.234 61L217.264 40.3145H220.258L224.564 61H220.34L219.246 55.6543H211.904L208.473 61H204.234ZM214.092 51.9219H218.521L217.619 45.6602L214.092 51.9219ZM226.67 61L231.072 40.3145H237.061C237.644 40.3145 238.168 40.3327 238.633 40.3691C239.107 40.4056 239.512 40.4648 239.85 40.5469C240.779 40.7656 241.54 41.1712 242.133 41.7637C242.589 42.2194 242.949 42.7799 243.213 43.4453C243.34 43.7917 243.436 44.1289 243.5 44.457C243.564 44.776 243.596 45.1315 243.596 45.5234C243.596 45.9609 243.546 46.4076 243.445 46.8633C243.299 47.6289 242.976 48.4264 242.475 49.2559C241.982 50.0853 241.417 50.7871 240.779 51.3613C240.205 51.8809 239.553 52.3092 238.824 52.6465C238.186 52.9382 237.475 53.1751 236.691 53.3574L240.67 61H235.939L232.193 53.0703L230.512 61H226.67ZM232.809 50.1582H234.9C235.265 50.1582 235.566 50.1491 235.803 50.1309C236.04 50.1126 236.29 50.0716 236.555 50.0078C237.193 49.8711 237.726 49.6341 238.154 49.2969C238.902 48.7044 239.376 47.957 239.576 47.0547L239.631 46.6719L239.645 46.4121C239.645 45.7103 239.408 45.1497 238.934 44.7305C238.615 44.4388 238.214 44.2383 237.73 44.1289C237.576 44.1016 237.375 44.0788 237.129 44.0605C236.892 44.0423 236.6 44.0332 236.254 44.0332H234.121L232.809 50.1582ZM242.912 61L247.314 40.3145H258.43L257.65 44.0332H250.363L249.352 48.791H256.324L255.518 52.5098H248.545L247.533 57.2812H254.82L254.027 61H242.912Z" fill="white"/>
</g>
<defs>
<filter id="filter0_d_510_49" x="0.296875" y="0.917969" width="322.809" height="68.5879" filterUnits="userSpaceOnUse" color-interpolation-filters="sRGB">
<feFlood flood-opacity="0" result="BackgroundImageFix"/>
<feColorMatrix in="SourceAlpha" type="matrix" values="0 0 0 0 0 0 0 0 0 0 0 0 0 0 0 0 0 0 127 0" result="hardAlpha"/>
<feOffset dy="4"/>
<feGaussianBlur stdDeviation="2"/>
<feComposite in2="hardAlpha" operator="out"/>
<feColorMatrix type="matrix" values="0 0 0 0 0 0 0 0 0 0 0 0 0 0 0 0 0 0 0.25 0"/>
<feBlend mode="normal" in2="BackgroundImageFix" result="effect1_dropShadow_510_49"/>
<feBlend mode="normal" in="SourceGraphic" in2="effect1_dropShadow_510_49" result="shape"/>
</filter>
</defs>
</svg>
