<svg width="10" height="10" viewBox="0 0 10 10" fill="none" xmlns="http://www.w3.org/2000/svg">
<g clip-path="url(#clip0_2441_651)">
<path fill-rule="evenodd" clip-rule="evenodd" d="M8.05556 0.833374H1.94445C1.5394 0.833848 1.15108 0.994149 0.86467 1.27911C0.578259 1.56408 0.417144 1.95044 0.416668 2.35344V5.51084C0.417144 5.91384 0.578259 6.3002 0.86467 6.58516C1.15108 6.87013 1.5394 7.03043 1.94445 7.0309H8.05556C8.4606 7.03043 8.84892 6.87013 9.13533 6.58516C9.42174 6.3002 9.58286 5.91384 9.58333 5.51084V2.35344C9.58286 1.95044 9.42174 1.56408 9.13533 1.27911C8.84892 0.994149 8.4606 0.833848 8.05556 0.833374ZM8.97222 5.51084C8.97196 5.75264 8.8753 5.98447 8.70344 6.15545C8.53159 6.32644 8.29859 6.42261 8.05556 6.42288H1.94445C1.70141 6.42261 1.46841 6.32644 1.29656 6.15545C1.12471 5.98447 1.02804 5.75264 1.02778 5.51084V2.35344C1.02804 2.11163 1.12471 1.8798 1.29656 1.70882C1.46841 1.53784 1.70141 1.44166 1.94445 1.4414H8.05556C8.29859 1.44166 8.53159 1.53784 8.70344 1.70882C8.8753 1.8798 8.97196 2.11163 8.97222 2.35344V5.51084ZM6.44603 3.4056L4.73533 2.42292C4.64243 2.3695 4.53703 2.34137 4.42973 2.34135C4.32243 2.34133 4.21702 2.36943 4.1241 2.42282C4.03118 2.4762 3.95403 2.553 3.90041 2.64547C3.8468 2.73795 3.8186 2.84284 3.81867 2.9496V4.91469C3.81832 5.02156 3.84634 5.12662 3.89989 5.21926C3.95344 5.3119 4.03063 5.38882 4.12364 5.44227C4.21665 5.49571 4.3222 5.52377 4.42961 5.52361C4.53702 5.52345 4.64248 5.49509 4.73533 5.44137L6.44603 4.45868C6.53893 4.40532 6.61607 4.32857 6.66971 4.23614C6.72335 4.14372 6.75158 4.03887 6.75158 3.93215C6.75158 3.82542 6.72335 3.72057 6.66971 3.62815C6.61607 3.53572 6.53893 3.45896 6.44603 3.4056ZM4.42978 4.91468V2.94958L6.14018 3.93228L4.42978 4.91468ZM3.386 7.54802C3.42309 7.53275 3.46283 7.5249 3.50296 7.52493C3.5431 7.5249 3.58284 7.53275 3.61992 7.54802C3.657 7.56329 3.6907 7.58568 3.71908 7.61392C3.74745 7.64215 3.76996 7.67568 3.78531 7.71257C3.80065 7.74947 3.80854 7.78901 3.80852 7.82894V8.0418H7.83743C7.91847 8.0418 7.99619 8.07383 8.05349 8.13085C8.1108 8.18786 8.14299 8.26519 8.14299 8.34582C8.14299 8.42645 8.1108 8.50377 8.05349 8.56079C7.99619 8.6178 7.91847 8.64983 7.83743 8.64983H3.80852V8.8627C3.80852 8.94333 3.77633 9.02066 3.71902 9.07767C3.66172 9.13468 3.584 9.16671 3.50296 9.16671C3.42193 9.16671 3.34421 9.13468 3.2869 9.07767C3.2296 9.02066 3.19741 8.94333 3.19741 8.8627V8.64983H2.16258C2.08154 8.64983 2.00382 8.6178 1.94652 8.56079C1.88921 8.50377 1.85702 8.42645 1.85702 8.34582C1.85702 8.26519 1.88921 8.18786 1.94652 8.13085C2.00382 8.07383 2.08154 8.0418 2.16258 8.0418H3.19741V7.82894C3.19738 7.78901 3.20527 7.74947 3.22062 7.71257C3.23597 7.67568 3.25847 7.64215 3.28685 7.61392C3.31523 7.58568 3.34892 7.56329 3.386 7.54802Z" fill="#333333"/>
</g>
<defs>
<clipPath id="clip0_2441_651">
<rect width="10" height="10" fill="white"/>
</clipPath>
</defs>
</svg>
