<svg width="16" height="16" viewBox="0 0 16 16" fill="none" xmlns="http://www.w3.org/2000/svg">
<rect width="16" height="16" rx="8" fill="white"/>
<g clip-path="url(#clip0_291_942)">
<path d="M11.2 11H4.8C4.4692 11 4.2 11.2692 4.2 11.6C4.2 11.9308 4.4692 12.2 4.8 12.2H11.2C11.5308 12.2 11.8 11.9308 11.8 11.6C11.8 11.2692 11.5308 11 11.2 11ZM13 5.79999C13 6.21038 12.688 6.54559 12.2896 6.59118L11.5192 10.6H4.4808L3.71039 6.59118C3.31199 6.54559 3 6.21038 3 5.79999C3 5.3588 3.35881 4.99999 3.8 4.99999C4.24119 4.99999 4.6 5.3588 4.6 5.79999C4.6 6.09639 4.436 6.35278 4.19561 6.49118C4.65801 7.58717 5.3832 8.25958 6.05521 8.19878C6.80561 8.13759 7.41762 7.25038 7.75521 5.76598C7.32242 5.65637 7.00002 5.26637 7.00002 4.79999C7.00002 4.24839 7.44842 3.79999 8.00002 3.79999C8.55162 3.79999 9.00002 4.24839 9.00002 4.79999C9.00002 5.26639 8.67762 5.65639 8.24482 5.76598C8.58242 7.25038 9.19443 8.13759 9.94482 8.19878C10.6196 8.25958 11.3416 7.58717 11.8044 6.49118C11.564 6.35278 11.4 6.09637 11.4 5.79999C11.4 5.3588 11.7588 4.99999 12.2 4.99999C12.6412 4.99999 13 5.3588 13 5.79999Z" fill="url(#paint0_linear_291_942)"/>
</g>
<defs>
<linearGradient id="paint0_linear_291_942" x1="8" y1="12.2" x2="8" y2="3.79999" gradientUnits="userSpaceOnUse">
<stop stop-color="#FD5900"/>
<stop offset="1" stop-color="#FFDE00"/>
</linearGradient>
<clipPath id="clip0_291_942">
<rect width="10" height="10" fill="white" transform="translate(3 3)"/>
</clipPath>
</defs>
</svg>
