<svg width="316" height="19" viewBox="0 0 316 19" fill="none" xmlns="http://www.w3.org/2000/svg">
<path d="M9.03125 15.3613C8.78385 15.3353 8.58854 15.2637 8.44531 15.1465C8.30208 15.0293 8.19466 14.8861 8.12305 14.7168C8.05143 14.5475 8.00586 14.362 7.98633 14.1602C7.9668 13.9583 7.95703 13.7533 7.95703 13.5449V12.9102C7.95703 12.8711 7.95378 12.8581 7.94727 12.8711C7.62826 13.2357 7.30599 13.5742 6.98047 13.8867C6.66146 14.1927 6.32617 14.4596 5.97461 14.6875C5.62305 14.9089 5.2487 15.0846 4.85156 15.2148C4.46094 15.3451 4.03776 15.4102 3.58203 15.4102C3.03516 15.4102 2.57617 15.3158 2.20508 15.127C1.83398 14.9447 1.53451 14.7005 1.30664 14.3945C1.08529 14.0885 0.925781 13.7402 0.828125 13.3496C0.730469 12.959 0.681641 12.5553 0.681641 12.1387C0.681641 11.8457 0.701172 11.5625 0.740234 11.2891C0.785807 10.957 0.857422 10.5501 0.955078 10.0684C1.05273 9.58659 1.16341 9.07227 1.28711 8.52539C1.41081 7.97201 1.54102 7.40885 1.67773 6.83594C1.81445 6.26302 1.93815 5.71615 2.04883 5.19531C2.15951 4.67448 2.25391 4.20573 2.33203 3.78906C2.41016 3.36589 2.45573 3.03385 2.46875 2.79297C2.46875 2.61719 2.45247 2.47396 2.41992 2.36328C2.39388 2.24609 2.35807 2.14518 2.3125 2.06055C2.26693 1.9694 2.2181 1.89128 2.16602 1.82617C2.12044 1.75456 2.07812 1.67969 2.03906 1.60156C2.17578 1.48438 2.34505 1.38997 2.54688 1.31836C2.7487 1.24023 2.95703 1.17839 3.17188 1.13281C3.38672 1.08073 3.59505 1.04492 3.79688 1.02539C3.9987 1.00586 4.16797 0.996094 4.30469 0.996094C4.92318 0.996094 5.25195 1.26628 5.29102 1.80664C5.29102 2.04753 5.26172 2.35026 5.20312 2.71484C5.14453 3.07292 5.06966 3.47005 4.97852 3.90625C4.88737 4.33594 4.7832 4.79492 4.66602 5.2832C4.54883 5.76497 4.42839 6.25 4.30469 6.73828C4.18099 7.22656 4.06055 7.70833 3.94336 8.18359C3.83268 8.65234 3.73503 9.08854 3.65039 9.49219C3.55924 9.95443 3.47461 10.3874 3.39648 10.791C3.32487 11.1947 3.28906 11.5592 3.28906 11.8848C3.28906 12.4121 3.39648 12.8223 3.61133 13.1152C3.83268 13.4017 4.16146 13.5449 4.59766 13.5449C4.97526 13.5449 5.38216 13.418 5.81836 13.1641C6.26107 12.9102 6.70378 12.5195 7.14648 11.9922C7.40039 11.6471 7.61849 11.2272 7.80078 10.7324C7.98307 10.2376 8.14909 9.70378 8.29883 9.13086C8.44857 8.59049 8.60482 7.99805 8.76758 7.35352C8.93034 6.70898 9.08333 6.07096 9.22656 5.43945C9.3763 4.80143 9.50977 4.19922 9.62695 3.63281C9.74414 3.0599 9.82878 2.57812 9.88086 2.1875C9.89388 2.10286 9.89388 2.04102 9.88086 2.00195C9.87435 1.95638 9.86458 1.89779 9.85156 1.82617C9.81901 1.64388 9.84505 1.4974 9.92969 1.38672C10.0208 1.27604 10.1413 1.19141 10.291 1.13281C10.4473 1.07422 10.6198 1.03841 10.8086 1.02539C11.0039 1.00586 11.1927 0.996094 11.375 0.996094C11.6745 0.996094 11.9154 1.00586 12.0977 1.02539C12.2865 1.04492 12.4329 1.08073 12.5371 1.13281C12.6478 1.1849 12.7227 1.25326 12.7617 1.33789C12.8008 1.42253 12.8203 1.52995 12.8203 1.66016C12.8073 1.84896 12.7617 2.05404 12.6836 2.27539C12.6055 2.49023 12.5241 2.73438 12.4395 3.00781C12.2051 3.78906 11.9707 4.60286 11.7363 5.44922C11.5085 6.29557 11.3001 7.1224 11.1113 7.92969C10.929 8.73698 10.7793 9.50521 10.6621 10.2344C10.5514 10.957 10.4961 11.5918 10.4961 12.1387C10.4961 12.2884 10.4993 12.4316 10.5059 12.5684C10.5124 12.7051 10.5254 12.832 10.5449 12.9492C10.6165 13.3854 10.7012 13.75 10.7988 14.043C10.8965 14.3359 11.0527 14.5768 11.2676 14.7656C10.9421 14.9935 10.5872 15.1562 10.2031 15.2539C9.82552 15.3581 9.4349 15.3939 9.03125 15.3613ZM19.2949 7.40234C19.1712 7.40234 19.0247 7.4707 18.8555 7.60742C18.6927 7.73763 18.5137 7.91667 18.3184 8.14453C18.1296 8.36589 17.9277 8.6263 17.7129 8.92578C17.5046 9.21875 17.2962 9.53125 17.0879 9.86328C16.8665 10.2214 16.6777 10.5436 16.5215 10.8301C16.3652 11.1165 16.2155 11.416 16.0723 11.7285C15.9355 12.0345 15.7891 12.3763 15.6328 12.7539C15.4831 13.125 15.3008 13.5742 15.0859 14.1016C15.0208 14.2643 14.9492 14.4076 14.8711 14.5312C14.793 14.6484 14.6986 14.7493 14.5879 14.834C14.4772 14.9121 14.3405 14.9707 14.1777 15.0098C14.015 15.0488 13.8197 15.0684 13.5918 15.0684C13.4095 15.0684 13.2012 15.0553 12.9668 15.0293C12.7389 15.0098 12.4785 14.9772 12.1855 14.9316C12.3874 14.4303 12.5762 13.9258 12.752 13.418C12.9342 12.9036 13.1003 12.3926 13.25 11.8848C13.6016 10.7194 13.8522 9.72005 14.002 8.88672C14.1517 8.04688 14.2266 7.38281 14.2266 6.89453C14.2266 6.66667 14.2103 6.45508 14.1777 6.25977C14.1452 6.05794 14.0931 5.88216 14.0215 5.73242C14.4186 5.55013 14.7734 5.41992 15.0859 5.3418C15.4049 5.26367 15.6816 5.22461 15.916 5.22461C16.0267 5.22461 16.1374 5.24089 16.248 5.27344C16.3652 5.30599 16.4694 5.35807 16.5605 5.42969C16.6517 5.49479 16.7266 5.58268 16.7852 5.69336C16.8438 5.79753 16.873 5.92773 16.873 6.08398C16.873 6.45508 16.8047 6.91732 16.668 7.4707C16.5378 8.02409 16.388 8.6556 16.2188 9.36523C16.4987 8.8444 16.8242 8.33333 17.1953 7.83203C17.5664 7.33073 17.957 6.88477 18.3672 6.49414C18.7773 6.09701 19.1908 5.77799 19.6074 5.53711C20.0306 5.29622 20.431 5.17578 20.8086 5.17578C21.0104 5.17578 21.196 5.20833 21.3652 5.27344C21.5345 5.33854 21.6777 5.42969 21.7949 5.54688C21.9186 5.66406 22.013 5.80404 22.0781 5.9668C22.1497 6.12305 22.1855 6.29557 22.1855 6.48438C22.1855 6.89453 22.127 7.40234 22.0098 8.00781C21.8926 8.61328 21.7493 9.27083 21.5801 9.98047C21.515 10.2018 21.4499 10.4232 21.3848 10.6445C21.3262 10.8659 21.2708 11.084 21.2188 11.2988C21.1667 11.5137 21.1243 11.7188 21.0918 11.9141C21.0592 12.1029 21.043 12.2786 21.043 12.4414C21.043 12.5326 21.043 12.6237 21.043 12.7148C21.0495 12.806 21.0592 12.8906 21.0723 12.9688C21.0853 13.0404 21.1048 13.099 21.1309 13.1445C21.1569 13.1901 21.1927 13.2129 21.2383 13.2129C21.3294 13.2129 21.4531 13.1543 21.6094 13.0371C21.7721 12.9199 21.9382 12.7702 22.1074 12.5879C22.4004 12.2884 22.6283 12.0638 22.791 11.9141C22.9538 11.7643 23.084 11.6895 23.1816 11.6895C23.2207 11.6895 23.25 11.6992 23.2695 11.7188C23.2891 11.7383 23.2988 11.7773 23.2988 11.8359C23.2988 12.0573 23.25 12.2917 23.1523 12.5391C23.0547 12.7865 22.9212 13.0339 22.752 13.2812C22.5892 13.5221 22.3971 13.7533 22.1758 13.9746C21.9609 14.1895 21.7331 14.3815 21.4922 14.5508C21.2578 14.7201 21.0202 14.8568 20.7793 14.9609C20.5384 15.0586 20.3138 15.1074 20.1055 15.1074C19.6302 15.1074 19.2428 14.974 18.9434 14.707C18.6439 14.4401 18.4941 14.0234 18.4941 13.457C18.4941 13.1445 18.5299 12.8255 18.6016 12.5C18.6732 12.1745 18.7546 11.8066 18.8457 11.3965C19.0801 10.3743 19.2591 9.55404 19.3828 8.93555C19.5065 8.31706 19.5684 7.93945 19.5684 7.80273C19.5684 7.65299 19.5391 7.54883 19.4805 7.49023C19.4284 7.43164 19.3665 7.40234 19.2949 7.40234ZM26.1211 13.2129C26.3815 13.2129 26.6224 13.1738 26.8438 13.0957C27.0651 13.0111 27.2702 12.9004 27.459 12.7637C27.6608 12.6139 27.8496 12.474 28.0254 12.3438C28.2012 12.207 28.3607 12.0898 28.5039 11.9922C28.6471 11.8945 28.7676 11.8164 28.8652 11.7578C28.9629 11.6992 29.0345 11.6699 29.0801 11.6699C29.1517 11.6699 29.1452 11.7643 29.0605 11.9531C28.9824 12.1419 28.8001 12.4609 28.5137 12.9102C28.3053 13.2357 28.0482 13.5352 27.7422 13.8086C27.4362 14.0755 27.1172 14.3066 26.7852 14.502C26.4596 14.6908 26.1374 14.8405 25.8184 14.9512C25.4993 15.0553 25.2292 15.1074 25.0078 15.1074C24.526 15.1074 24.1387 14.974 23.8457 14.707C23.5527 14.4401 23.4062 14.0267 23.4062 13.4668C23.3932 13.2715 23.403 13.0599 23.4355 12.832C23.4681 12.5977 23.5104 12.3079 23.5625 11.9629C23.582 11.8913 23.5951 11.8164 23.6016 11.7383C23.6146 11.6536 23.6276 11.5723 23.6406 11.4941C23.3151 11.7285 23.0775 11.8945 22.9277 11.9922C22.7845 12.0898 22.6999 12.1387 22.6738 12.1387C22.6543 12.1387 22.6641 12.1159 22.7031 12.0703C22.7422 12.0247 22.8008 11.9661 22.8789 11.8945C22.9635 11.8164 23.0612 11.7253 23.1719 11.6211C23.2891 11.5169 23.416 11.4062 23.5527 11.2891C23.5397 11.3021 23.5462 11.2956 23.5723 11.2695C23.5983 11.2435 23.6471 11.2044 23.7188 11.1523C24.0508 9.72005 24.4089 8.29102 24.793 6.86523C25.1836 5.43294 25.5938 4.01042 26.0234 2.59766C26.069 2.46094 26.1439 2.32422 26.248 2.1875C26.3587 2.04427 26.4857 1.92383 26.6289 1.82617C26.7721 1.72201 26.9219 1.65365 27.0781 1.62109C27.2344 1.58854 27.3809 1.57878 27.5176 1.5918C27.778 1.60482 28.0319 1.65365 28.2793 1.73828C28.5332 1.82292 28.7871 1.95964 29.041 2.14844C29.1191 2.22656 29.168 2.31445 29.1875 2.41211C29.1875 2.42513 29.194 2.48698 29.207 2.59766C29.2266 2.70182 29.2363 2.85807 29.2363 3.06641C29.2363 3.15755 29.2331 3.25521 29.2266 3.35938C29.2266 3.46354 29.2168 3.57747 29.1973 3.70117C29.1517 4.07878 29.054 4.48568 28.9043 4.92188C28.7546 5.35156 28.5853 5.79102 28.3965 6.24023C28.2402 6.5918 28.071 6.93034 27.8887 7.25586C27.7129 7.57487 27.5371 7.86784 27.3613 8.13477C27.1921 8.40169 27.0326 8.63932 26.8828 8.84766C26.7396 9.04948 26.6257 9.20573 26.541 9.31641L26.5215 9.42383C26.502 9.50846 26.4824 9.59635 26.4629 9.6875C26.4499 9.77214 26.4271 9.86003 26.3945 9.95117C26.362 10.0944 26.3197 10.2865 26.2676 10.5273C26.222 10.7617 26.1732 11.0026 26.1211 11.25C26.0755 11.4974 26.0332 11.735 25.9941 11.9629C25.9616 12.1842 25.9453 12.3503 25.9453 12.4609C25.9453 12.5521 25.9453 12.6432 25.9453 12.7344C25.9518 12.819 25.9583 12.8971 25.9648 12.9688C25.9779 13.0404 25.9941 13.099 26.0137 13.1445C26.0397 13.1901 26.0755 13.2129 26.1211 13.2129ZM27.5664 5.60547C27.4167 6.04818 27.2767 6.4974 27.1465 6.95312C27.0228 7.40234 26.9056 7.85156 26.7949 8.30078C26.9902 8.01432 27.1986 7.67578 27.4199 7.28516C27.6478 6.88802 27.8561 6.46484 28.0449 6.01562C28.2337 5.59245 28.3997 5.17578 28.543 4.76562C28.6927 4.34896 28.7871 3.9681 28.8262 3.62305C28.8327 3.49284 28.8392 3.3724 28.8457 3.26172C28.8522 3.15104 28.849 3.05013 28.8359 2.95898C28.8359 2.86784 28.7936 2.80924 28.709 2.7832C28.6309 2.75716 28.5658 2.78646 28.5137 2.87109C28.4876 2.91667 28.4616 2.96549 28.4355 3.01758C28.4095 3.06966 28.39 3.12174 28.377 3.17383C28.2207 3.58398 28.0742 3.99089 27.9375 4.39453C27.8008 4.79167 27.6771 5.19531 27.5664 5.60547ZM30.9453 7.1875C31.5052 6.5625 32.1302 6.07096 32.8203 5.71289C33.5104 5.35482 34.2493 5.17578 35.0371 5.17578C35.5254 5.17578 35.9714 5.25065 36.375 5.40039C36.7786 5.54362 37.1237 5.75195 37.4102 6.02539C37.7031 6.29883 37.9277 6.63411 38.084 7.03125C38.2467 7.42839 38.3281 7.87435 38.3281 8.36914C38.3281 8.93555 38.2565 9.49544 38.1133 10.0488C37.9766 10.6022 37.7812 11.1328 37.5273 11.6406C37.2734 12.1419 36.9674 12.6107 36.6094 13.0469C36.2578 13.4766 35.8639 13.8509 35.4277 14.1699C34.998 14.4824 34.5326 14.7298 34.0312 14.9121C33.5365 15.0879 33.0221 15.1758 32.4883 15.1758C31.9935 15.1758 31.5443 15.1009 31.1406 14.9512C30.737 14.7949 30.3887 14.5736 30.0957 14.2871C29.8092 14.0007 29.5879 13.6523 29.4316 13.2422C29.2754 12.8255 29.1973 12.3568 29.1973 11.8359C29.1973 10.957 29.3438 10.1302 29.6367 9.35547C29.9362 8.58073 30.3724 7.85807 30.9453 7.1875ZM35.6523 8.36914C35.6523 8.10872 35.6328 7.86458 35.5938 7.63672C35.5547 7.40885 35.4896 7.21029 35.3984 7.04102C35.3073 6.87174 35.1868 6.74154 35.0371 6.65039C34.8874 6.55273 34.7051 6.50391 34.4902 6.50391C34.2233 6.50391 33.9727 6.5918 33.7383 6.76758C33.5039 6.94336 33.2891 7.18099 33.0938 7.48047C32.8984 7.77344 32.7227 8.11198 32.5664 8.49609C32.4102 8.8737 32.2767 9.26758 32.166 9.67773C32.0618 10.0879 31.9805 10.498 31.9219 10.9082C31.8698 11.3118 31.8438 11.6862 31.8438 12.0312C31.8438 12.2982 31.8633 12.5456 31.9023 12.7734C31.9479 12.9948 32.0163 13.1868 32.1074 13.3496C32.2051 13.5124 32.3288 13.6393 32.4785 13.7305C32.6348 13.8216 32.8203 13.8672 33.0352 13.8672C33.2956 13.8672 33.543 13.7793 33.7773 13.6035C34.0117 13.4277 34.2233 13.1966 34.4121 12.9102C34.6074 12.6172 34.7799 12.2819 34.9297 11.9043C35.0859 11.5202 35.2161 11.1263 35.3203 10.7227C35.431 10.3125 35.5124 9.9056 35.5645 9.50195C35.623 9.0918 35.6523 8.71419 35.6523 8.36914ZM46.2773 12.0801C46.3359 12.1842 46.375 12.2852 46.3945 12.3828C46.4141 12.4805 46.4238 12.5846 46.4238 12.6953C46.4238 12.9557 46.349 13.1966 46.1992 13.418C46.056 13.6393 45.8607 13.8444 45.6133 14.0332C45.3724 14.2155 45.0957 14.3783 44.7832 14.5215C44.4707 14.6647 44.1484 14.7852 43.8164 14.8828C43.4909 14.974 43.1686 15.0456 42.8496 15.0977C42.5371 15.1497 42.2539 15.1758 42 15.1758C39.8385 15.1758 38.7578 14.1634 38.7578 12.1387C38.7578 11.5397 38.8327 10.9538 38.9824 10.3809C39.1322 9.80143 39.3405 9.25456 39.6074 8.74023C39.8809 8.22591 40.2031 7.75065 40.5742 7.31445C40.9518 6.87826 41.3685 6.50391 41.8242 6.19141C42.2799 5.8724 42.7682 5.625 43.2891 5.44922C43.8099 5.26693 44.347 5.17578 44.9004 5.17578C45.6751 5.17578 46.2448 5.27018 46.6094 5.45898C46.9805 5.64779 47.166 5.93099 47.166 6.30859C47.166 6.47786 47.1237 6.64062 47.0391 6.79688C46.9544 6.94661 46.834 7.08659 46.6777 7.2168C46.528 7.34701 46.349 7.46419 46.1406 7.56836C45.9323 7.67253 45.7077 7.76367 45.4668 7.8418C45.4082 7.58138 45.3431 7.36003 45.2715 7.17773C45.1999 6.99544 45.1152 6.85221 45.0176 6.74805C44.9199 6.63737 44.8027 6.55924 44.666 6.51367C44.5358 6.46159 44.3796 6.43555 44.1973 6.43555C43.8197 6.43555 43.4681 6.55599 43.1426 6.79688C42.8236 7.03125 42.5436 7.37305 42.3027 7.82227C42.0684 8.27148 41.8828 8.81836 41.7461 9.46289C41.6159 10.1074 41.5508 10.8366 41.5508 11.6504C41.5508 11.9238 41.5768 12.1842 41.6289 12.4316C41.681 12.679 41.7591 12.8971 41.8633 13.0859C41.974 13.2682 42.1139 13.4147 42.2832 13.5254C42.459 13.6296 42.6673 13.6816 42.9082 13.6816C43.2272 13.6816 43.543 13.6458 43.8555 13.5742C44.1745 13.4961 44.4772 13.3887 44.7637 13.252C45.0566 13.1087 45.3301 12.9395 45.584 12.7441C45.8379 12.5488 46.069 12.3275 46.2773 12.0801ZM51.043 1.67969C51.3164 1.67969 51.5312 1.75781 51.6875 1.91406C51.8438 2.0638 51.9219 2.28516 51.9219 2.57812C51.9219 2.5651 51.9056 2.64648 51.873 2.82227C51.847 2.99805 51.8047 3.2487 51.7461 3.57422C51.694 3.89974 51.6257 4.29036 51.541 4.74609C51.4564 5.20182 51.3587 5.69987 51.248 6.24023C51.1374 6.77409 51.0137 7.34049 50.877 7.93945C50.7467 8.53841 50.6035 9.14714 50.4473 9.76562C51.528 8.27474 52.4688 7.15169 53.2695 6.39648C54.0768 5.64128 54.7572 5.26367 55.3105 5.26367C55.623 5.26367 55.8607 5.41016 56.0234 5.70312C56.1862 5.99609 56.2904 6.4388 56.3359 7.03125C56.082 7.03125 55.8151 7.07357 55.5352 7.1582C55.2617 7.24284 54.972 7.37956 54.666 7.56836C54.3665 7.75065 54.0508 7.99154 53.7188 8.29102C53.3867 8.58398 53.0352 8.94206 52.6641 9.36523C52.6641 9.39779 52.6608 9.43034 52.6543 9.46289C52.6478 9.49544 52.6445 9.53125 52.6445 9.57031C52.6445 9.64844 52.651 9.73307 52.6641 9.82422C52.6836 9.90885 52.7096 9.99674 52.7422 10.0879C52.8464 10.4134 52.9668 10.7454 53.1035 11.084C53.2402 11.4225 53.3997 11.7318 53.582 12.0117C53.7643 12.2852 53.9759 12.5098 54.2168 12.6855C54.4577 12.8613 54.7409 12.9492 55.0664 12.9492C55.2943 12.9492 55.5319 12.9036 55.7793 12.8125C56.0332 12.7214 56.3099 12.5814 56.6094 12.3926C56.6615 12.3665 56.6842 12.3535 56.6777 12.3535C56.7038 12.3535 56.7168 12.3763 56.7168 12.4219C56.7168 12.4544 56.7135 12.4805 56.707 12.5C56.7005 12.513 56.6908 12.5293 56.6777 12.5488C56.5605 12.8613 56.3913 13.1673 56.1699 13.4668C55.9486 13.7598 55.7012 14.0234 55.4277 14.2578C55.1543 14.4857 54.8646 14.6712 54.5586 14.8145C54.2591 14.9512 53.9694 15.0195 53.6895 15.0195C53.4225 15.0195 53.1654 14.9512 52.918 14.8145C52.6771 14.6712 52.4395 14.4434 52.2051 14.1309C51.9707 13.8184 51.7363 13.4115 51.502 12.9102C51.2676 12.4089 51.0267 11.8001 50.7793 11.084C50.6686 11.2923 50.5645 11.5007 50.4668 11.709C50.3691 11.9108 50.2682 12.1289 50.1641 12.3633C50.0664 12.5977 49.959 12.8581 49.8418 13.1445C49.7246 13.4245 49.5944 13.7435 49.4512 14.1016C49.3861 14.2643 49.3145 14.4076 49.2363 14.5312C49.1582 14.6484 49.0605 14.7493 48.9434 14.834C48.8327 14.9121 48.696 14.9707 48.5332 15.0098C48.377 15.0488 48.1849 15.0684 47.957 15.0684C47.7747 15.0684 47.5697 15.0553 47.3418 15.0293C47.1139 15.0098 46.8535 14.9772 46.5605 14.9316C47.2507 13.1283 47.8138 11.2467 48.25 9.28711C48.6862 7.32747 49.0345 5.32227 49.2949 3.27148C49.2949 3.23242 49.2982 3.19987 49.3047 3.17383C49.3112 3.14128 49.3145 3.11198 49.3145 3.08594C49.3145 2.9362 49.2982 2.79948 49.2656 2.67578C49.2331 2.55208 49.181 2.41211 49.1094 2.25586C49.4609 2.06055 49.7832 1.92057 50.0762 1.83594C50.3691 1.7513 50.6589 1.69922 50.9453 1.67969H51.043ZM70.8086 12.6074C71.0951 12.2949 71.3262 12.0671 71.502 11.9238C71.6842 11.7806 71.821 11.709 71.9121 11.709C71.9707 11.709 72 11.7643 72 11.875C72 12.0898 71.9512 12.321 71.8535 12.5684C71.7559 12.8158 71.6224 13.0599 71.4531 13.3008C71.2904 13.5417 71.1016 13.7728 70.8867 13.9941C70.6719 14.2155 70.444 14.4108 70.2031 14.5801C69.9688 14.7493 69.7311 14.8861 69.4902 14.9902C69.2493 15.0879 69.0247 15.1367 68.8164 15.1367C68.3151 15.1367 67.9212 14.9837 67.6348 14.6777C67.3548 14.3652 67.2148 13.8835 67.2148 13.2324C67.2148 13.1283 67.2148 13.0111 67.2148 12.8809C67.2214 12.7507 67.2279 12.6204 67.2344 12.4902C67.2474 12.3535 67.2572 12.2233 67.2637 12.0996C67.2767 11.9759 67.2897 11.8685 67.3027 11.7773C66.6257 12.8841 65.9616 13.7174 65.3105 14.2773C64.666 14.8372 64.0443 15.1302 63.4453 15.1562H63.25C62.8919 15.1562 62.5892 15.0944 62.3418 14.9707C62.0944 14.847 61.8926 14.6745 61.7363 14.4531C61.5866 14.2253 61.4759 13.9583 61.4043 13.6523C61.3392 13.3398 61.3066 12.998 61.3066 12.627C61.3197 12.0475 61.401 11.4616 61.5508 10.8691C61.707 10.2767 61.9154 9.70703 62.1758 9.16016C62.4362 8.60677 62.7422 8.08919 63.0938 7.60742C63.4518 7.12565 63.8392 6.70573 64.2559 6.34766C64.6725 5.98958 65.112 5.70964 65.5742 5.50781C66.043 5.29948 66.5182 5.19531 67 5.19531C67.3516 5.19531 67.6738 5.23438 67.9668 5.3125C68.2598 5.38411 68.5267 5.51107 68.7676 5.69336C68.9043 5.53711 69.0703 5.41992 69.2656 5.3418C69.4609 5.26367 69.6725 5.22461 69.9004 5.22461C70.1738 5.22461 70.4408 5.26367 70.7012 5.3418C70.9681 5.41341 71.2318 5.51758 71.4922 5.6543C71.3815 5.81706 71.2611 6.06771 71.1309 6.40625C71.0007 6.74479 70.8704 7.12891 70.7402 7.55859C70.61 7.98828 70.4831 8.44401 70.3594 8.92578C70.2422 9.40104 70.1348 9.86328 70.0371 10.3125C69.946 10.7617 69.8711 11.1784 69.8125 11.5625C69.7604 11.9466 69.7344 12.2526 69.7344 12.4805C69.7344 12.5716 69.7344 12.6628 69.7344 12.7539C69.7409 12.8451 69.7507 12.9264 69.7637 12.998C69.7767 13.0697 69.7962 13.1283 69.8223 13.1738C69.8483 13.2194 69.8841 13.2389 69.9297 13.2324C70.0794 13.2194 70.2194 13.1543 70.3496 13.0371C70.4863 12.9199 70.6393 12.7767 70.8086 12.6074ZM66.1504 11.6211C66.3783 11.2891 66.5964 10.944 66.8047 10.5859C67.0195 10.2214 67.2148 9.86328 67.3906 9.51172C67.5729 9.16016 67.7357 8.81836 67.8789 8.48633C68.0286 8.1543 68.1523 7.85156 68.25 7.57812C68.2044 7.39583 68.1296 7.23958 68.0254 7.10938C67.9212 6.97266 67.8008 6.86198 67.6641 6.77734C67.5339 6.69271 67.3939 6.63086 67.2441 6.5918C67.0944 6.55273 66.9512 6.5332 66.8145 6.5332C66.5736 6.5332 66.3359 6.62435 66.1016 6.80664C65.8672 6.98242 65.6426 7.22005 65.4277 7.51953C65.2129 7.81901 65.0143 8.16732 64.832 8.56445C64.6497 8.95508 64.4902 9.36523 64.3535 9.79492C64.2233 10.2246 64.1191 10.6576 64.041 11.0938C63.9694 11.5299 63.9336 11.9434 63.9336 12.334C63.9531 12.653 64.0085 12.8906 64.0996 13.0469C64.1973 13.1966 64.3405 13.2715 64.5293 13.2715C64.7181 13.2715 64.946 13.1283 65.2129 12.8418C65.4863 12.5553 65.7988 12.1484 66.1504 11.6211ZM74.793 13.2129C75.0534 13.2129 75.2943 13.1738 75.5156 13.0957C75.737 13.0111 75.9421 12.9004 76.1309 12.7637C76.3327 12.6139 76.5215 12.474 76.6973 12.3438C76.873 12.207 77.0326 12.0898 77.1758 11.9922C77.319 11.8945 77.4395 11.8164 77.5371 11.7578C77.6348 11.6992 77.7064 11.6699 77.752 11.6699C77.8236 11.6699 77.8171 11.7643 77.7324 11.9531C77.6543 12.1419 77.472 12.4609 77.1855 12.9102C76.9772 13.2357 76.7201 13.5352 76.4141 13.8086C76.1081 14.0755 75.7891 14.3066 75.457 14.502C75.1315 14.6908 74.8092 14.8405 74.4902 14.9512C74.1712 15.0553 73.901 15.1074 73.6797 15.1074C73.1979 15.1074 72.8105 14.974 72.5176 14.707C72.2246 14.4401 72.0781 14.0267 72.0781 13.4668C72.0651 13.2715 72.0749 13.0599 72.1074 12.832C72.14 12.5977 72.1823 12.3079 72.2344 11.9629C72.2539 11.8913 72.2669 11.8164 72.2734 11.7383C72.2865 11.6536 72.2995 11.5723 72.3125 11.4941C71.987 11.7285 71.7493 11.8945 71.5996 11.9922C71.4564 12.0898 71.3717 12.1387 71.3457 12.1387C71.3262 12.1387 71.3359 12.1159 71.375 12.0703C71.4141 12.0247 71.4727 11.9661 71.5508 11.8945C71.6354 11.8164 71.7331 11.7253 71.8438 11.6211C71.9609 11.5169 72.0879 11.4062 72.2246 11.2891C72.2116 11.3021 72.2181 11.2956 72.2441 11.2695C72.2702 11.2435 72.319 11.2044 72.3906 11.1523C72.7227 9.72005 73.0807 8.29102 73.4648 6.86523C73.8555 5.43294 74.2656 4.01042 74.6953 2.59766C74.7409 2.46094 74.8158 2.32422 74.9199 2.1875C75.0306 2.04427 75.1576 1.92383 75.3008 1.82617C75.444 1.72201 75.5938 1.65365 75.75 1.62109C75.9062 1.58854 76.0527 1.57878 76.1895 1.5918C76.4499 1.60482 76.7038 1.65365 76.9512 1.73828C77.2051 1.82292 77.459 1.95964 77.7129 2.14844C77.791 2.22656 77.8398 2.31445 77.8594 2.41211C77.8594 2.42513 77.8659 2.48698 77.8789 2.59766C77.8984 2.70182 77.9082 2.85807 77.9082 3.06641C77.9082 3.15755 77.9049 3.25521 77.8984 3.35938C77.8984 3.46354 77.8887 3.57747 77.8691 3.70117C77.8236 4.07878 77.7259 4.48568 77.5762 4.92188C77.4264 5.35156 77.2572 5.79102 77.0684 6.24023C76.9121 6.5918 76.7428 6.93034 76.5605 7.25586C76.3848 7.57487 76.209 7.86784 76.0332 8.13477C75.8639 8.40169 75.7044 8.63932 75.5547 8.84766C75.4115 9.04948 75.2975 9.20573 75.2129 9.31641L75.1934 9.42383C75.1738 9.50846 75.1543 9.59635 75.1348 9.6875C75.1217 9.77214 75.099 9.86003 75.0664 9.95117C75.0339 10.0944 74.9915 10.2865 74.9395 10.5273C74.8939 10.7617 74.8451 11.0026 74.793 11.25C74.7474 11.4974 74.7051 11.735 74.666 11.9629C74.6335 12.1842 74.6172 12.3503 74.6172 12.4609C74.6172 12.5521 74.6172 12.6432 74.6172 12.7344C74.6237 12.819 74.6302 12.8971 74.6367 12.9688C74.6497 13.0404 74.666 13.099 74.6855 13.1445C74.7116 13.1901 74.7474 13.2129 74.793 13.2129ZM76.2383 5.60547C76.0885 6.04818 75.9486 6.4974 75.8184 6.95312C75.6947 7.40234 75.5775 7.85156 75.4668 8.30078C75.6621 8.01432 75.8704 7.67578 76.0918 7.28516C76.3197 6.88802 76.528 6.46484 76.7168 6.01562C76.9056 5.59245 77.0716 5.17578 77.2148 4.76562C77.3646 4.34896 77.459 3.9681 77.498 3.62305C77.5046 3.49284 77.5111 3.3724 77.5176 3.26172C77.5241 3.15104 77.5208 3.05013 77.5078 2.95898C77.5078 2.86784 77.4655 2.80924 77.3809 2.7832C77.3027 2.75716 77.2376 2.78646 77.1855 2.87109C77.1595 2.91667 77.1335 2.96549 77.1074 3.01758C77.0814 3.06966 77.0618 3.12174 77.0488 3.17383C76.8926 3.58398 76.7461 3.99089 76.6094 4.39453C76.4727 4.79167 76.349 5.19531 76.2383 5.60547ZM80.7305 13.2129C80.9909 13.2129 81.2318 13.1738 81.4531 13.0957C81.6745 13.0111 81.8796 12.9004 82.0684 12.7637C82.2702 12.6139 82.459 12.474 82.6348 12.3438C82.8105 12.207 82.9701 12.0898 83.1133 11.9922C83.2565 11.8945 83.377 11.8164 83.4746 11.7578C83.5723 11.6992 83.6439 11.6699 83.6895 11.6699C83.7611 11.6699 83.7546 11.7643 83.6699 11.9531C83.5918 12.1419 83.4095 12.4609 83.123 12.9102C82.9147 13.2357 82.6576 13.5352 82.3516 13.8086C82.0456 14.0755 81.7266 14.3066 81.3945 14.502C81.069 14.6908 80.7467 14.8405 80.4277 14.9512C80.1087 15.0553 79.8385 15.1074 79.6172 15.1074C79.1354 15.1074 78.748 14.974 78.4551 14.707C78.1621 14.4401 78.0156 14.0267 78.0156 13.4668C78.0026 13.2715 78.0124 13.0599 78.0449 12.832C78.0775 12.5977 78.1198 12.3079 78.1719 11.9629C78.1914 11.8913 78.2044 11.8164 78.2109 11.7383C78.224 11.6536 78.237 11.5723 78.25 11.4941C77.9245 11.7285 77.6868 11.8945 77.5371 11.9922C77.3939 12.0898 77.3092 12.1387 77.2832 12.1387C77.2637 12.1387 77.2734 12.1159 77.3125 12.0703C77.3516 12.0247 77.4102 11.9661 77.4883 11.8945C77.5729 11.8164 77.6706 11.7253 77.7812 11.6211C77.8984 11.5169 78.0254 11.4062 78.1621 11.2891C78.1491 11.3021 78.1556 11.2956 78.1816 11.2695C78.2077 11.2435 78.2565 11.2044 78.3281 11.1523C78.6602 9.72005 79.0182 8.29102 79.4023 6.86523C79.793 5.43294 80.2031 4.01042 80.6328 2.59766C80.6784 2.46094 80.7533 2.32422 80.8574 2.1875C80.9681 2.04427 81.0951 1.92383 81.2383 1.82617C81.3815 1.72201 81.5312 1.65365 81.6875 1.62109C81.8438 1.58854 81.9902 1.57878 82.127 1.5918C82.3874 1.60482 82.6413 1.65365 82.8887 1.73828C83.1426 1.82292 83.3965 1.95964 83.6504 2.14844C83.7285 2.22656 83.7773 2.31445 83.7969 2.41211C83.7969 2.42513 83.8034 2.48698 83.8164 2.59766C83.8359 2.70182 83.8457 2.85807 83.8457 3.06641C83.8457 3.15755 83.8424 3.25521 83.8359 3.35938C83.8359 3.46354 83.8262 3.57747 83.8066 3.70117C83.7611 4.07878 83.6634 4.48568 83.5137 4.92188C83.3639 5.35156 83.1947 5.79102 83.0059 6.24023C82.8496 6.5918 82.6803 6.93034 82.498 7.25586C82.3223 7.57487 82.1465 7.86784 81.9707 8.13477C81.8014 8.40169 81.6419 8.63932 81.4922 8.84766C81.349 9.04948 81.235 9.20573 81.1504 9.31641L81.1309 9.42383C81.1113 9.50846 81.0918 9.59635 81.0723 9.6875C81.0592 9.77214 81.0365 9.86003 81.0039 9.95117C80.9714 10.0944 80.929 10.2865 80.877 10.5273C80.8314 10.7617 80.7826 11.0026 80.7305 11.25C80.6849 11.4974 80.6426 11.735 80.6035 11.9629C80.571 12.1842 80.5547 12.3503 80.5547 12.4609C80.5547 12.5521 80.5547 12.6432 80.5547 12.7344C80.5612 12.819 80.5677 12.8971 80.5742 12.9688C80.5872 13.0404 80.6035 13.099 80.623 13.1445C80.6491 13.1901 80.6849 13.2129 80.7305 13.2129ZM82.1758 5.60547C82.026 6.04818 81.8861 6.4974 81.7559 6.95312C81.6322 7.40234 81.515 7.85156 81.4043 8.30078C81.5996 8.01432 81.8079 7.67578 82.0293 7.28516C82.2572 6.88802 82.4655 6.46484 82.6543 6.01562C82.8431 5.59245 83.0091 5.17578 83.1523 4.76562C83.3021 4.34896 83.3965 3.9681 83.4355 3.62305C83.4421 3.49284 83.4486 3.3724 83.4551 3.26172C83.4616 3.15104 83.4583 3.05013 83.4453 2.95898C83.4453 2.86784 83.403 2.80924 83.3184 2.7832C83.2402 2.75716 83.1751 2.78646 83.123 2.87109C83.097 2.91667 83.071 2.96549 83.0449 3.01758C83.0189 3.06966 82.9993 3.12174 82.9863 3.17383C82.8301 3.58398 82.6836 3.99089 82.5469 4.39453C82.4102 4.79167 82.2865 5.19531 82.1758 5.60547ZM87.6445 17.373C88.1003 17.002 88.4779 16.5658 88.7773 16.0645C89.0833 15.5632 89.2917 15.0228 89.4023 14.4434C89.4219 14.3457 89.4512 14.1862 89.4902 13.9648C89.5358 13.7435 89.5846 13.4798 89.6367 13.1738C89.6953 12.8678 89.7604 12.5326 89.832 12.168C89.9036 11.8034 89.9753 11.4355 90.0469 11.0645C90.1185 10.6868 90.1901 10.319 90.2617 9.96094C90.3333 9.60286 90.3984 9.27409 90.457 8.97461C90.5221 8.66862 90.5775 8.4082 90.623 8.19336C90.6686 7.97201 90.7012 7.81901 90.7207 7.73438H90.3398C90.2422 7.73438 90.1348 7.72786 90.0176 7.71484C89.9004 7.69531 89.7897 7.66927 89.6855 7.63672C89.5879 7.60417 89.5065 7.5651 89.4414 7.51953C89.3763 7.46745 89.3438 7.41211 89.3438 7.35352C89.3438 7.33398 89.347 7.32096 89.3535 7.31445C89.36 7.30143 89.3633 7.28841 89.3633 7.27539C89.4349 7.06706 89.5065 6.90104 89.5781 6.77734C89.6497 6.64714 89.7409 6.54622 89.8516 6.47461C89.9688 6.40299 90.1185 6.35417 90.3008 6.32812C90.4896 6.30208 90.7337 6.28906 91.0332 6.28906C91.0723 6.13932 91.1081 5.98958 91.1406 5.83984C91.1797 5.68359 91.2155 5.5306 91.248 5.38086C91.4108 4.72331 91.6712 4.14388 92.0293 3.64258C92.3939 3.13477 92.8236 2.71159 93.3184 2.37305C93.8197 2.02799 94.373 1.76758 94.9785 1.5918C95.584 1.41602 96.2155 1.32812 96.873 1.32812C97.1139 1.32812 97.3385 1.34115 97.5469 1.36719C97.7552 1.39323 97.9342 1.44206 98.084 1.51367C98.2402 1.58529 98.3607 1.6862 98.4453 1.81641C98.5365 1.9401 98.582 2.10286 98.582 2.30469C98.582 2.50651 98.4648 2.72461 98.2305 2.95898C98.0026 3.18685 97.6641 3.4082 97.2148 3.62305C96.8828 2.93945 96.4238 2.59766 95.8379 2.59766C95.7272 2.59766 95.6068 2.62044 95.4766 2.66602C95.3529 2.70508 95.2324 2.76367 95.1152 2.8418C94.998 2.91341 94.8874 2.99479 94.7832 3.08594C94.679 3.17708 94.5944 3.27148 94.5293 3.36914C94.36 3.62305 94.194 3.99089 94.0312 4.47266C93.875 4.95443 93.722 5.5599 93.5723 6.28906H94.2363C94.5879 6.28906 94.946 6.26953 95.3105 6.23047C95.6751 6.1849 96.0169 6.16211 96.3359 6.16211C96.3424 6.20117 96.3457 6.24023 96.3457 6.2793C96.3457 6.31185 96.3457 6.3444 96.3457 6.37695C96.3457 6.65039 96.2806 6.875 96.1504 7.05078C96.0267 7.22656 95.8607 7.36328 95.6523 7.46094C95.4505 7.55859 95.2227 7.62695 94.9688 7.66602C94.7214 7.69857 94.474 7.71484 94.2266 7.71484C94.0573 7.71484 93.8913 7.71159 93.7285 7.70508C93.5723 7.69857 93.4128 7.69531 93.25 7.69531C93.1393 8.1901 93.0319 8.69141 92.9277 9.19922C92.8301 9.70703 92.7227 10.2246 92.6055 10.752C92.4883 11.2793 92.3548 11.8164 92.2051 12.3633C92.0618 12.9102 91.8926 13.4701 91.6973 14.043C91.5475 14.4857 91.349 14.9023 91.1016 15.293C90.8607 15.6901 90.5807 16.0547 90.2617 16.3867C89.9427 16.7188 89.5879 17.0117 89.1973 17.2656C88.8132 17.526 88.3997 17.7376 87.957 17.9004C87.9245 17.9134 87.8952 17.9232 87.8691 17.9297C87.8366 17.9362 87.8073 17.9395 87.7812 17.9395C87.651 17.9395 87.5664 17.9102 87.5273 17.8516C87.4818 17.7995 87.459 17.7376 87.459 17.666C87.4655 17.6009 87.485 17.5521 87.5176 17.5195C87.5501 17.4935 87.5924 17.4447 87.6445 17.373ZM100.34 13.7598C100.984 13.6947 101.561 13.5286 102.068 13.2617C102.576 12.9883 103.064 12.6237 103.533 12.168C103.657 12.3958 103.709 12.64 103.689 12.9004C103.676 13.1543 103.585 13.3854 103.416 13.5938C103.266 13.7826 103.077 13.9616 102.85 14.1309C102.628 14.2936 102.371 14.4401 102.078 14.5703C101.186 14.974 100.236 15.1758 99.2266 15.1758C98.1719 15.1758 97.3516 14.9479 96.7656 14.4922C96.1862 14.0365 95.8737 13.3431 95.8281 12.4121C95.8086 11.9499 95.8314 11.4909 95.8965 11.0352C95.9681 10.5794 96.0788 10.1367 96.2285 9.70703C96.3783 9.27734 96.5703 8.86719 96.8047 8.47656C97.0391 8.08594 97.3125 7.72461 97.625 7.39258C98.237 6.66341 98.9141 6.11328 99.6562 5.74219C100.398 5.36458 101.176 5.17578 101.99 5.17578C102.745 5.17578 103.305 5.33529 103.67 5.6543C104.035 5.9668 104.21 6.43229 104.197 7.05078C104.197 7.35677 104.103 7.67904 103.914 8.01758C103.725 8.34961 103.455 8.68164 103.104 9.01367C102.752 9.33919 102.329 9.64844 101.834 9.94141C101.339 10.2344 100.789 10.4883 100.184 10.7031C100.04 10.7552 99.8678 10.8236 99.666 10.9082C99.4642 10.9928 99.2721 11.0872 99.0898 11.1914C98.9076 11.2956 98.7513 11.4095 98.6211 11.5332C98.4909 11.6504 98.4225 11.7676 98.416 11.8848C98.403 12.1061 98.4128 12.3079 98.4453 12.4902C98.4779 12.666 98.5365 12.8125 98.6211 12.9297C98.8164 13.2227 99.0638 13.4473 99.3633 13.6035C99.6693 13.7533 99.9948 13.8053 100.34 13.7598ZM98.7773 9.85352C98.7643 9.91862 98.748 9.99023 98.7285 10.0684C98.7155 10.14 98.696 10.2246 98.6699 10.3223C98.6504 10.4199 98.6276 10.5306 98.6016 10.6543C98.6797 10.4915 98.7708 10.3516 98.875 10.2344C98.9792 10.1172 99.0931 10.013 99.2168 9.92188C99.347 9.83073 99.487 9.74609 99.6367 9.66797C99.7865 9.58333 99.946 9.49544 100.115 9.4043C100.402 9.24805 100.639 9.0918 100.828 8.93555C101.023 8.7793 101.183 8.6263 101.307 8.47656C101.43 8.32682 101.525 8.17383 101.59 8.01758C101.661 7.86133 101.72 7.70508 101.766 7.54883C101.811 7.39258 101.831 7.24284 101.824 7.09961C101.818 6.95638 101.785 6.83268 101.727 6.72852C101.674 6.61784 101.593 6.5332 101.482 6.47461C101.378 6.40951 101.245 6.37695 101.082 6.37695C100.594 6.37695 100.151 6.67643 99.7539 7.27539C99.3633 7.86784 99.0378 8.72721 98.7773 9.85352ZM113.836 12.6074C114.122 12.2949 114.354 12.0671 114.529 11.9238C114.712 11.7806 114.848 11.709 114.939 11.709C114.998 11.709 115.027 11.7643 115.027 11.875C115.027 12.0898 114.979 12.321 114.881 12.5684C114.783 12.8158 114.65 13.0599 114.48 13.3008C114.318 13.5417 114.129 13.7728 113.914 13.9941C113.699 14.2155 113.471 14.4108 113.23 14.5801C112.996 14.7493 112.758 14.8861 112.518 14.9902C112.277 15.0879 112.052 15.1367 111.844 15.1367C111.342 15.1367 110.949 14.9837 110.662 14.6777C110.382 14.3652 110.242 13.8835 110.242 13.2324C110.242 13.1283 110.242 13.0111 110.242 12.8809C110.249 12.7507 110.255 12.6204 110.262 12.4902C110.275 12.3535 110.285 12.2233 110.291 12.0996C110.304 11.9759 110.317 11.8685 110.33 11.7773C109.653 12.8841 108.989 13.7174 108.338 14.2773C107.693 14.8372 107.072 15.1302 106.473 15.1562H106.277C105.919 15.1562 105.617 15.0944 105.369 14.9707C105.122 14.847 104.92 14.6745 104.764 14.4531C104.614 14.2253 104.503 13.9583 104.432 13.6523C104.367 13.3398 104.334 12.998 104.334 12.627C104.347 12.0475 104.428 11.4616 104.578 10.8691C104.734 10.2767 104.943 9.70703 105.203 9.16016C105.464 8.60677 105.77 8.08919 106.121 7.60742C106.479 7.12565 106.867 6.70573 107.283 6.34766C107.7 5.98958 108.139 5.70964 108.602 5.50781C109.07 5.29948 109.546 5.19531 110.027 5.19531C110.379 5.19531 110.701 5.23438 110.994 5.3125C111.287 5.38411 111.554 5.51107 111.795 5.69336C111.932 5.53711 112.098 5.41992 112.293 5.3418C112.488 5.26367 112.7 5.22461 112.928 5.22461C113.201 5.22461 113.468 5.26367 113.729 5.3418C113.995 5.41341 114.259 5.51758 114.52 5.6543C114.409 5.81706 114.288 6.06771 114.158 6.40625C114.028 6.74479 113.898 7.12891 113.768 7.55859C113.637 7.98828 113.51 8.44401 113.387 8.92578C113.27 9.40104 113.162 9.86328 113.064 10.3125C112.973 10.7617 112.898 11.1784 112.84 11.5625C112.788 11.9466 112.762 12.2526 112.762 12.4805C112.762 12.5716 112.762 12.6628 112.762 12.7539C112.768 12.8451 112.778 12.9264 112.791 12.998C112.804 13.0697 112.824 13.1283 112.85 13.1738C112.876 13.2194 112.911 13.2389 112.957 13.2324C113.107 13.2194 113.247 13.1543 113.377 13.0371C113.514 12.9199 113.667 12.7767 113.836 12.6074ZM109.178 11.6211C109.406 11.2891 109.624 10.944 109.832 10.5859C110.047 10.2214 110.242 9.86328 110.418 9.51172C110.6 9.16016 110.763 8.81836 110.906 8.48633C111.056 8.1543 111.18 7.85156 111.277 7.57812C111.232 7.39583 111.157 7.23958 111.053 7.10938C110.949 6.97266 110.828 6.86198 110.691 6.77734C110.561 6.69271 110.421 6.63086 110.271 6.5918C110.122 6.55273 109.979 6.5332 109.842 6.5332C109.601 6.5332 109.363 6.62435 109.129 6.80664C108.895 6.98242 108.67 7.22005 108.455 7.51953C108.24 7.81901 108.042 8.16732 107.859 8.56445C107.677 8.95508 107.518 9.36523 107.381 9.79492C107.251 10.2246 107.146 10.6576 107.068 11.0938C106.997 11.5299 106.961 11.9434 106.961 12.334C106.98 12.653 107.036 12.8906 107.127 13.0469C107.225 13.1966 107.368 13.2715 107.557 13.2715C107.745 13.2715 107.973 13.1283 108.24 12.8418C108.514 12.5553 108.826 12.1484 109.178 11.6211ZM121.512 6.20117C121.512 6.41602 121.469 6.61133 121.385 6.78711C121.307 6.96289 121.199 7.11589 121.062 7.24609C120.926 7.36979 120.766 7.46745 120.584 7.53906C120.402 7.60417 120.21 7.63672 120.008 7.63672C119.826 7.63672 119.679 7.63346 119.568 7.62695C119.458 7.62044 119.321 7.61719 119.158 7.61719C119.087 7.61719 119.015 7.62044 118.943 7.62695C118.878 7.62695 118.81 7.63672 118.738 7.65625C118.647 8.09245 118.546 8.54818 118.436 9.02344C118.331 9.49219 118.217 9.96745 118.094 10.4492C118.055 10.5859 118.019 10.7357 117.986 10.8984C117.954 11.0547 117.924 11.2174 117.898 11.3867C117.872 11.556 117.85 11.7253 117.83 11.8945C117.817 12.0638 117.811 12.2233 117.811 12.373C117.843 12.946 118.077 13.2324 118.514 13.2324C118.566 13.2324 118.628 13.2129 118.699 13.1738C118.771 13.1348 118.846 13.0827 118.924 13.0176C119.002 12.9525 119.083 12.8809 119.168 12.8027C119.259 12.7181 119.344 12.6335 119.422 12.5488C119.715 12.2428 119.949 12.015 120.125 11.8652C120.301 11.709 120.434 11.6309 120.525 11.6309C120.584 11.6309 120.613 11.6862 120.613 11.7969C120.613 12.0117 120.564 12.2428 120.467 12.4902C120.369 12.7376 120.239 12.9818 120.076 13.2227C119.913 13.4635 119.721 13.6979 119.5 13.9258C119.285 14.1471 119.061 14.3424 118.826 14.5117C118.592 14.681 118.354 14.8177 118.113 14.9219C117.872 15.0195 117.645 15.0684 117.43 15.0684C117.059 15.0684 116.74 15.0163 116.473 14.9121C116.206 14.8014 115.988 14.6452 115.818 14.4434C115.656 14.2415 115.535 13.9974 115.457 13.7109C115.379 13.418 115.34 13.0924 115.34 12.7344C115.34 12.5521 115.35 12.3698 115.369 12.1875C115.395 11.9987 115.421 11.8099 115.447 11.6211C115.493 11.3542 115.532 11.1263 115.564 10.9375C115.597 10.7422 115.633 10.5469 115.672 10.3516C115.717 10.1497 115.766 9.92513 115.818 9.67773C115.877 9.43034 115.952 9.12109 116.043 8.75C116.141 8.3724 116.235 7.97852 116.326 7.56836C116.424 7.1582 116.512 6.75781 116.59 6.36719C116.668 5.97656 116.73 5.60872 116.775 5.26367C116.821 4.91211 116.844 4.60612 116.844 4.3457C116.844 4.17643 116.831 4.01367 116.805 3.85742C116.785 3.70117 116.736 3.53516 116.658 3.35938C117.036 3.13802 117.381 2.98177 117.693 2.89062C118.006 2.79948 118.309 2.75391 118.602 2.75391C118.895 2.75391 119.113 2.83529 119.256 2.99805C119.406 3.1543 119.48 3.36914 119.48 3.64258C119.48 3.61654 119.451 3.81836 119.393 4.24805C119.334 4.67122 119.217 5.32878 119.041 6.2207H119.803C120.076 6.2207 120.35 6.21094 120.623 6.19141C120.903 6.16536 121.199 6.12956 121.512 6.08398V6.20117ZM130.076 5.22461C130.219 5.23763 130.356 5.26042 130.486 5.29297C130.623 5.32552 130.743 5.38086 130.848 5.45898C130.952 5.5306 131.033 5.62826 131.092 5.75195C131.15 5.86914 131.18 6.01888 131.18 6.20117C131.18 6.38997 131.157 6.59831 131.111 6.82617C131.072 7.04753 131.017 7.28841 130.945 7.54883C130.822 7.99154 130.695 8.43099 130.564 8.86719C130.441 9.30339 130.327 9.72656 130.223 10.1367C130.125 10.5469 130.044 10.9408 129.979 11.3184C129.913 11.6895 129.881 12.0345 129.881 12.3535C129.881 12.4447 129.881 12.5358 129.881 12.627C129.887 12.7181 129.897 12.8027 129.91 12.8809C129.923 12.9525 129.943 13.0111 129.969 13.0566C129.995 13.1022 130.031 13.125 130.076 13.125C130.161 13.125 130.262 13.0892 130.379 13.0176C130.503 12.9395 130.633 12.8418 130.77 12.7246C130.906 12.6074 131.043 12.4837 131.18 12.3535C131.316 12.2233 131.443 12.0996 131.561 11.9824C131.678 11.8652 131.779 11.7708 131.863 11.6992C131.954 11.6211 132.016 11.582 132.049 11.582C132.12 11.582 132.156 11.6341 132.156 11.7383C132.156 11.9531 132.107 12.1842 132.01 12.4316C131.912 12.679 131.779 12.9264 131.609 13.1738C131.447 13.4147 131.255 13.6458 131.033 13.8672C130.818 14.0885 130.59 14.2871 130.35 14.4629C130.115 14.6322 129.874 14.7689 129.627 14.873C129.386 14.9707 129.158 15.0195 128.943 15.0195C128.442 15.0195 128.048 14.8633 127.762 14.5508C127.482 14.2318 127.342 13.7467 127.342 13.0957C127.342 12.8483 127.358 12.6172 127.391 12.4023C127.423 12.1875 127.462 11.9564 127.508 11.709C126.811 12.8483 126.121 13.7109 125.438 14.2969C124.754 14.8828 124.044 15.1758 123.309 15.1758C122.977 15.1758 122.706 15.1204 122.498 15.0098C122.296 14.9056 122.14 14.7689 122.029 14.5996C121.919 14.4238 121.844 14.2253 121.805 14.0039C121.766 13.7826 121.746 13.5579 121.746 13.3301C121.746 13.0957 121.779 12.7962 121.844 12.4316C121.909 12.0671 121.987 11.6699 122.078 11.2402C122.176 10.8105 122.28 10.3646 122.391 9.90234C122.508 9.4401 122.612 8.9974 122.703 8.57422C122.801 8.15104 122.882 7.76042 122.947 7.40234C123.012 7.04427 123.045 6.7513 123.045 6.52344C123.045 6.3737 123.032 6.21745 123.006 6.05469C122.986 5.89193 122.938 5.74219 122.859 5.60547C123.191 5.47526 123.51 5.38086 123.816 5.32227C124.129 5.25716 124.399 5.22461 124.627 5.22461C124.835 5.22461 125.005 5.25065 125.135 5.30273C125.271 5.35482 125.379 5.42643 125.457 5.51758C125.535 5.60872 125.59 5.71615 125.623 5.83984C125.656 5.95703 125.672 6.08398 125.672 6.2207C125.672 6.40299 125.649 6.5918 125.604 6.78711C125.564 6.97591 125.525 7.15169 125.486 7.31445C125.343 7.94596 125.203 8.54492 125.066 9.11133C124.93 9.67773 124.806 10.1953 124.695 10.6641C124.585 11.1328 124.493 11.5495 124.422 11.9141C124.357 12.2721 124.324 12.5618 124.324 12.7832C124.324 12.9069 124.347 13.0176 124.393 13.1152C124.438 13.2064 124.529 13.252 124.666 13.252C124.79 13.252 124.949 13.1803 125.145 13.0371C125.34 12.8874 125.551 12.679 125.779 12.4121C126.014 12.1452 126.258 11.8262 126.512 11.4551C126.772 11.084 127.026 10.6738 127.273 10.2246C127.736 9.38477 128.081 8.60677 128.309 7.89062C128.543 7.17448 128.66 6.57227 128.66 6.08398C128.66 5.99284 128.65 5.89193 128.631 5.78125C128.618 5.67057 128.585 5.56966 128.533 5.47852C128.768 5.39388 129.025 5.33203 129.305 5.29297C129.591 5.2474 129.848 5.22461 130.076 5.22461ZM138.943 12.4609C139.594 11.7773 139.995 11.4616 140.145 11.5137C140.301 11.5658 140.2 11.9596 139.842 12.6953C139.692 13.0013 139.49 13.2975 139.236 13.584C138.982 13.8704 138.706 14.1243 138.406 14.3457C138.113 14.5671 137.817 14.7461 137.518 14.8828C137.218 15.0195 136.948 15.0879 136.707 15.0879C136.453 15.0879 136.225 15.0553 136.023 14.9902C135.822 14.9251 135.652 14.8242 135.516 14.6875C135.379 14.5443 135.278 14.3652 135.213 14.1504C135.154 13.9355 135.145 13.6784 135.184 13.3789C135.203 13.1966 135.236 12.9948 135.281 12.7734C135.327 12.5521 135.379 12.3307 135.438 12.1094C135.496 11.8815 135.555 11.6634 135.613 11.4551C135.678 11.2402 135.737 11.0547 135.789 10.8984C135.822 10.7878 135.867 10.638 135.926 10.4492C135.991 10.2604 136.059 10.0521 136.131 9.82422C136.209 9.58984 136.287 9.35221 136.365 9.11133C136.45 8.87044 136.528 8.64258 136.6 8.42773C136.671 8.21289 136.73 8.02734 136.775 7.87109C136.827 7.70833 136.863 7.5944 136.883 7.5293C136.941 7.34701 136.977 7.21354 136.99 7.12891C137.003 7.04427 136.951 7.01172 136.834 7.03125C136.795 7.03776 136.723 7.05078 136.619 7.07031C136.515 7.08333 136.391 7.09635 136.248 7.10938C136.105 7.1224 135.945 7.13542 135.77 7.14844C135.6 7.16146 135.428 7.16797 135.252 7.16797C135.187 7.35026 135.102 7.57487 134.998 7.8418C134.9 8.10872 134.767 8.38867 134.598 8.68164C134.435 8.97461 134.256 9.25781 134.061 9.53125C133.865 9.79818 133.667 10.0065 133.465 10.1562C133.237 10.3255 132.993 10.4427 132.732 10.5078C132.472 10.5729 132.218 10.5599 131.971 10.4688C132.205 10.1953 132.4 9.93164 132.557 9.67773C132.719 9.42383 132.853 9.16667 132.957 8.90625C133.068 8.64583 133.149 8.37565 133.201 8.0957C133.253 7.80924 133.289 7.5 133.309 7.16797C133.029 7.0638 132.827 6.91732 132.703 6.72852C132.586 6.53971 132.527 6.33789 132.527 6.12305C132.527 5.9082 132.57 5.6901 132.654 5.46875C132.745 5.2474 132.856 5.05208 132.986 4.88281C133.123 4.70703 133.27 4.57031 133.426 4.47266C133.582 4.375 133.722 4.33919 133.846 4.36523C133.839 4.44336 133.816 4.54102 133.777 4.6582C133.745 4.76888 133.729 4.87956 133.729 4.99023C133.735 5.10091 133.784 5.20508 133.875 5.30273C133.966 5.40039 134.139 5.47201 134.393 5.51758C134.653 5.55664 135.014 5.56641 135.477 5.54688C135.945 5.52083 136.554 5.44271 137.303 5.3125C137.452 5.27995 137.635 5.24414 137.85 5.20508C138.071 5.15951 138.289 5.14648 138.504 5.16602C138.719 5.18555 138.911 5.25065 139.08 5.36133C139.256 5.47201 139.373 5.66081 139.432 5.92773C139.497 6.23372 139.503 6.54948 139.451 6.875C139.399 7.19401 139.321 7.51628 139.217 7.8418C139.113 8.16732 138.995 8.49284 138.865 8.81836C138.735 9.13737 138.624 9.44661 138.533 9.74609C138.377 10.2604 138.227 10.7324 138.084 11.1621C137.941 11.5918 137.856 11.9727 137.83 12.3047C137.824 12.4023 137.817 12.5033 137.811 12.6074C137.811 12.7051 137.814 12.793 137.82 12.8711C137.827 12.9492 137.843 13.0143 137.869 13.0664C137.895 13.112 137.934 13.1315 137.986 13.125C138.09 13.1185 138.224 13.0501 138.387 12.9199C138.549 12.7832 138.735 12.6302 138.943 12.4609ZM145.086 13.7598C145.73 13.6947 146.307 13.5286 146.814 13.2617C147.322 12.9883 147.811 12.6237 148.279 12.168C148.403 12.3958 148.455 12.64 148.436 12.9004C148.423 13.1543 148.331 13.3854 148.162 13.5938C148.012 13.7826 147.824 13.9616 147.596 14.1309C147.374 14.2936 147.117 14.4401 146.824 14.5703C145.932 14.974 144.982 15.1758 143.973 15.1758C142.918 15.1758 142.098 14.9479 141.512 14.4922C140.932 14.0365 140.62 13.3431 140.574 12.4121C140.555 11.9499 140.577 11.4909 140.643 11.0352C140.714 10.5794 140.825 10.1367 140.975 9.70703C141.124 9.27734 141.316 8.86719 141.551 8.47656C141.785 8.08594 142.059 7.72461 142.371 7.39258C142.983 6.66341 143.66 6.11328 144.402 5.74219C145.145 5.36458 145.923 5.17578 146.736 5.17578C147.492 5.17578 148.051 5.33529 148.416 5.6543C148.781 5.9668 148.956 6.43229 148.943 7.05078C148.943 7.35677 148.849 7.67904 148.66 8.01758C148.471 8.34961 148.201 8.68164 147.85 9.01367C147.498 9.33919 147.075 9.64844 146.58 9.94141C146.085 10.2344 145.535 10.4883 144.93 10.7031C144.786 10.7552 144.614 10.8236 144.412 10.9082C144.21 10.9928 144.018 11.0872 143.836 11.1914C143.654 11.2956 143.497 11.4095 143.367 11.5332C143.237 11.6504 143.169 11.7676 143.162 11.8848C143.149 12.1061 143.159 12.3079 143.191 12.4902C143.224 12.666 143.283 12.8125 143.367 12.9297C143.562 13.2227 143.81 13.4473 144.109 13.6035C144.415 13.7533 144.741 13.8053 145.086 13.7598ZM143.523 9.85352C143.51 9.91862 143.494 9.99023 143.475 10.0684C143.462 10.14 143.442 10.2246 143.416 10.3223C143.396 10.4199 143.374 10.5306 143.348 10.6543C143.426 10.4915 143.517 10.3516 143.621 10.2344C143.725 10.1172 143.839 10.013 143.963 9.92188C144.093 9.83073 144.233 9.74609 144.383 9.66797C144.533 9.58333 144.692 9.49544 144.861 9.4043C145.148 9.24805 145.385 9.0918 145.574 8.93555C145.77 8.7793 145.929 8.6263 146.053 8.47656C146.176 8.32682 146.271 8.17383 146.336 8.01758C146.408 7.86133 146.466 7.70508 146.512 7.54883C146.557 7.39258 146.577 7.24284 146.57 7.09961C146.564 6.95638 146.531 6.83268 146.473 6.72852C146.421 6.61784 146.339 6.5332 146.229 6.47461C146.124 6.40951 145.991 6.37695 145.828 6.37695C145.34 6.37695 144.897 6.67643 144.5 7.27539C144.109 7.86784 143.784 8.72721 143.523 9.85352ZM154.344 6.03516C153.979 6.03516 153.712 6.13281 153.543 6.32812C153.374 6.52344 153.289 6.79688 153.289 7.14844C153.289 7.33073 153.328 7.50651 153.406 7.67578C153.491 7.84505 153.608 8.01758 153.758 8.19336C153.953 8.42773 154.142 8.65885 154.324 8.88672C154.513 9.11458 154.679 9.35221 154.822 9.59961C154.972 9.84701 155.092 10.1107 155.184 10.3906C155.275 10.6641 155.32 10.9635 155.32 11.2891C155.32 11.8294 155.206 12.334 154.979 12.8027C154.751 13.2715 154.445 13.6784 154.061 14.0234C153.676 14.3685 153.234 14.6387 152.732 14.834C152.238 15.0293 151.717 15.127 151.17 15.127C150.857 15.127 150.542 15.0781 150.223 14.9805C149.91 14.8828 149.627 14.7396 149.373 14.5508C149.119 14.3555 148.911 14.1211 148.748 13.8477C148.585 13.5742 148.504 13.2617 148.504 12.9102C148.504 12.7604 148.527 12.6237 148.572 12.5C148.618 12.3763 148.673 12.2656 148.738 12.168C148.81 12.0703 148.888 11.9857 148.973 11.9141C149.057 11.8424 149.142 11.7839 149.227 11.7383C149.331 12.0182 149.451 12.2852 149.588 12.5391C149.731 12.793 149.891 13.0208 150.066 13.2227C150.249 13.418 150.451 13.5775 150.672 13.7012C150.9 13.8249 151.15 13.8932 151.424 13.9062C151.847 13.9062 152.182 13.7891 152.43 13.5547C152.684 13.3138 152.811 12.9492 152.811 12.4609C152.811 12.2526 152.768 12.0573 152.684 11.875C152.599 11.6862 152.488 11.5039 152.352 11.3281C152.215 11.1523 152.059 10.9766 151.883 10.8008C151.714 10.625 151.541 10.4395 151.365 10.2441C151.137 9.96419 150.962 9.65495 150.838 9.31641C150.714 8.97786 150.652 8.63281 150.652 8.28125C150.652 7.70182 150.783 7.20378 151.043 6.78711C151.31 6.36393 151.655 6.01888 152.078 5.75195C152.501 5.47852 152.973 5.27669 153.494 5.14648C154.015 5.01628 154.536 4.95117 155.057 4.95117C155.382 4.95117 155.62 4.99023 155.77 5.06836C155.926 5.14648 156.03 5.28971 156.082 5.49805C156.082 5.68034 156.033 5.85612 155.936 6.02539C155.844 6.18815 155.662 6.36393 155.389 6.55273C155.206 6.37695 155.027 6.24674 154.852 6.16211C154.676 6.07747 154.507 6.03516 154.344 6.03516ZM160.379 17.373C160.835 17.002 161.212 16.5658 161.512 16.0645C161.818 15.5632 162.026 15.0228 162.137 14.4434C162.156 14.3457 162.186 14.1862 162.225 13.9648C162.27 13.7435 162.319 13.4798 162.371 13.1738C162.43 12.8678 162.495 12.5326 162.566 12.168C162.638 11.8034 162.71 11.4355 162.781 11.0645C162.853 10.6868 162.924 10.319 162.996 9.96094C163.068 9.60286 163.133 9.27409 163.191 8.97461C163.257 8.66862 163.312 8.4082 163.357 8.19336C163.403 7.97201 163.436 7.81901 163.455 7.73438H163.074C162.977 7.73438 162.869 7.72786 162.752 7.71484C162.635 7.69531 162.524 7.66927 162.42 7.63672C162.322 7.60417 162.241 7.5651 162.176 7.51953C162.111 7.46745 162.078 7.41211 162.078 7.35352C162.078 7.33398 162.081 7.32096 162.088 7.31445C162.094 7.30143 162.098 7.28841 162.098 7.27539C162.169 7.06706 162.241 6.90104 162.312 6.77734C162.384 6.64714 162.475 6.54622 162.586 6.47461C162.703 6.40299 162.853 6.35417 163.035 6.32812C163.224 6.30208 163.468 6.28906 163.768 6.28906C163.807 6.13932 163.842 5.98958 163.875 5.83984C163.914 5.68359 163.95 5.5306 163.982 5.38086C164.145 4.72331 164.406 4.14388 164.764 3.64258C165.128 3.13477 165.558 2.71159 166.053 2.37305C166.554 2.02799 167.107 1.76758 167.713 1.5918C168.318 1.41602 168.95 1.32812 169.607 1.32812C169.848 1.32812 170.073 1.34115 170.281 1.36719C170.49 1.39323 170.669 1.44206 170.818 1.51367C170.975 1.58529 171.095 1.6862 171.18 1.81641C171.271 1.9401 171.316 2.10286 171.316 2.30469C171.316 2.50651 171.199 2.72461 170.965 2.95898C170.737 3.18685 170.398 3.4082 169.949 3.62305C169.617 2.93945 169.158 2.59766 168.572 2.59766C168.462 2.59766 168.341 2.62044 168.211 2.66602C168.087 2.70508 167.967 2.76367 167.85 2.8418C167.732 2.91341 167.622 2.99479 167.518 3.08594C167.413 3.17708 167.329 3.27148 167.264 3.36914C167.094 3.62305 166.928 3.99089 166.766 4.47266C166.609 4.95443 166.456 5.5599 166.307 6.28906H166.971C167.322 6.28906 167.68 6.26953 168.045 6.23047C168.41 6.1849 168.751 6.16211 169.07 6.16211C169.077 6.20117 169.08 6.24023 169.08 6.2793C169.08 6.31185 169.08 6.3444 169.08 6.37695C169.08 6.65039 169.015 6.875 168.885 7.05078C168.761 7.22656 168.595 7.36328 168.387 7.46094C168.185 7.55859 167.957 7.62695 167.703 7.66602C167.456 7.69857 167.208 7.71484 166.961 7.71484C166.792 7.71484 166.626 7.71159 166.463 7.70508C166.307 7.69857 166.147 7.69531 165.984 7.69531C165.874 8.1901 165.766 8.69141 165.662 9.19922C165.564 9.70703 165.457 10.2246 165.34 10.752C165.223 11.2793 165.089 11.8164 164.939 12.3633C164.796 12.9102 164.627 13.4701 164.432 14.043C164.282 14.4857 164.083 14.9023 163.836 15.293C163.595 15.6901 163.315 16.0547 162.996 16.3867C162.677 16.7188 162.322 17.0117 161.932 17.2656C161.548 17.526 161.134 17.7376 160.691 17.9004C160.659 17.9134 160.63 17.9232 160.604 17.9297C160.571 17.9362 160.542 17.9395 160.516 17.9395C160.385 17.9395 160.301 17.9102 160.262 17.8516C160.216 17.7995 160.193 17.7376 160.193 17.666C160.2 17.6009 160.219 17.5521 160.252 17.5195C160.285 17.4935 160.327 17.4447 160.379 17.373ZM170.379 7.1875C170.939 6.5625 171.564 6.07096 172.254 5.71289C172.944 5.35482 173.683 5.17578 174.471 5.17578C174.959 5.17578 175.405 5.25065 175.809 5.40039C176.212 5.54362 176.557 5.75195 176.844 6.02539C177.137 6.29883 177.361 6.63411 177.518 7.03125C177.68 7.42839 177.762 7.87435 177.762 8.36914C177.762 8.93555 177.69 9.49544 177.547 10.0488C177.41 10.6022 177.215 11.1328 176.961 11.6406C176.707 12.1419 176.401 12.6107 176.043 13.0469C175.691 13.4766 175.298 13.8509 174.861 14.1699C174.432 14.4824 173.966 14.7298 173.465 14.9121C172.97 15.0879 172.456 15.1758 171.922 15.1758C171.427 15.1758 170.978 15.1009 170.574 14.9512C170.171 14.7949 169.822 14.5736 169.529 14.2871C169.243 14.0007 169.021 13.6523 168.865 13.2422C168.709 12.8255 168.631 12.3568 168.631 11.8359C168.631 10.957 168.777 10.1302 169.07 9.35547C169.37 8.58073 169.806 7.85807 170.379 7.1875ZM175.086 8.36914C175.086 8.10872 175.066 7.86458 175.027 7.63672C174.988 7.40885 174.923 7.21029 174.832 7.04102C174.741 6.87174 174.62 6.74154 174.471 6.65039C174.321 6.55273 174.139 6.50391 173.924 6.50391C173.657 6.50391 173.406 6.5918 173.172 6.76758C172.938 6.94336 172.723 7.18099 172.527 7.48047C172.332 7.77344 172.156 8.11198 172 8.49609C171.844 8.8737 171.71 9.26758 171.6 9.67773C171.495 10.0879 171.414 10.498 171.355 10.9082C171.303 11.3118 171.277 11.6862 171.277 12.0312C171.277 12.2982 171.297 12.5456 171.336 12.7734C171.382 12.9948 171.45 13.1868 171.541 13.3496C171.639 13.5124 171.762 13.6393 171.912 13.7305C172.068 13.8216 172.254 13.8672 172.469 13.8672C172.729 13.8672 172.977 13.7793 173.211 13.6035C173.445 13.4277 173.657 13.1966 173.846 12.9102C174.041 12.6172 174.214 12.2819 174.363 11.9043C174.52 11.5202 174.65 11.1263 174.754 10.7227C174.865 10.3125 174.946 9.9056 174.998 9.50195C175.057 9.0918 175.086 8.71419 175.086 8.36914ZM185.193 12.4609C185.844 11.7773 186.245 11.4616 186.395 11.5137C186.551 11.5658 186.45 11.9596 186.092 12.6953C185.942 13.0013 185.74 13.2975 185.486 13.584C185.232 13.8704 184.956 14.1243 184.656 14.3457C184.363 14.5671 184.067 14.7461 183.768 14.8828C183.468 15.0195 183.198 15.0879 182.957 15.0879C182.703 15.0879 182.475 15.0553 182.273 14.9902C182.072 14.9251 181.902 14.8242 181.766 14.6875C181.629 14.5443 181.528 14.3652 181.463 14.1504C181.404 13.9355 181.395 13.6784 181.434 13.3789C181.453 13.1966 181.486 12.9948 181.531 12.7734C181.577 12.5521 181.629 12.3307 181.688 12.1094C181.746 11.8815 181.805 11.6634 181.863 11.4551C181.928 11.2402 181.987 11.0547 182.039 10.8984C182.072 10.7878 182.117 10.638 182.176 10.4492C182.241 10.2604 182.309 10.0521 182.381 9.82422C182.459 9.58984 182.537 9.35221 182.615 9.11133C182.7 8.87044 182.778 8.64258 182.85 8.42773C182.921 8.21289 182.98 8.02734 183.025 7.87109C183.077 7.70833 183.113 7.5944 183.133 7.5293C183.191 7.34701 183.227 7.21354 183.24 7.12891C183.253 7.04427 183.201 7.01172 183.084 7.03125C183.045 7.03776 182.973 7.05078 182.869 7.07031C182.765 7.08333 182.641 7.09635 182.498 7.10938C182.355 7.1224 182.195 7.13542 182.02 7.14844C181.85 7.16146 181.678 7.16797 181.502 7.16797C181.437 7.35026 181.352 7.57487 181.248 7.8418C181.15 8.10872 181.017 8.38867 180.848 8.68164C180.685 8.97461 180.506 9.25781 180.311 9.53125C180.115 9.79818 179.917 10.0065 179.715 10.1562C179.487 10.3255 179.243 10.4427 178.982 10.5078C178.722 10.5729 178.468 10.5599 178.221 10.4688C178.455 10.1953 178.65 9.93164 178.807 9.67773C178.969 9.42383 179.103 9.16667 179.207 8.90625C179.318 8.64583 179.399 8.37565 179.451 8.0957C179.503 7.80924 179.539 7.5 179.559 7.16797C179.279 7.0638 179.077 6.91732 178.953 6.72852C178.836 6.53971 178.777 6.33789 178.777 6.12305C178.777 5.9082 178.82 5.6901 178.904 5.46875C178.995 5.2474 179.106 5.05208 179.236 4.88281C179.373 4.70703 179.52 4.57031 179.676 4.47266C179.832 4.375 179.972 4.33919 180.096 4.36523C180.089 4.44336 180.066 4.54102 180.027 4.6582C179.995 4.76888 179.979 4.87956 179.979 4.99023C179.985 5.10091 180.034 5.20508 180.125 5.30273C180.216 5.40039 180.389 5.47201 180.643 5.51758C180.903 5.55664 181.264 5.56641 181.727 5.54688C182.195 5.52083 182.804 5.44271 183.553 5.3125C183.702 5.27995 183.885 5.24414 184.1 5.20508C184.321 5.15951 184.539 5.14648 184.754 5.16602C184.969 5.18555 185.161 5.25065 185.33 5.36133C185.506 5.47201 185.623 5.66081 185.682 5.92773C185.747 6.23372 185.753 6.54948 185.701 6.875C185.649 7.19401 185.571 7.51628 185.467 7.8418C185.363 8.16732 185.245 8.49284 185.115 8.81836C184.985 9.13737 184.874 9.44661 184.783 9.74609C184.627 10.2604 184.477 10.7324 184.334 11.1621C184.191 11.5918 184.106 11.9727 184.08 12.3047C184.074 12.4023 184.067 12.5033 184.061 12.6074C184.061 12.7051 184.064 12.793 184.07 12.8711C184.077 12.9492 184.093 13.0143 184.119 13.0664C184.145 13.112 184.184 13.1315 184.236 13.125C184.34 13.1185 184.474 13.0501 184.637 12.9199C184.799 12.7832 184.985 12.6302 185.193 12.4609ZM193.836 5.17578C193.934 4.67448 194.012 4.2513 194.07 3.90625C194.129 3.55469 194.158 3.23893 194.158 2.95898C194.158 2.66602 194.1 2.38607 193.982 2.11914C194.327 1.91732 194.656 1.77409 194.969 1.68945C195.281 1.59831 195.581 1.55273 195.867 1.55273C195.991 1.55273 196.108 1.56901 196.219 1.60156C196.329 1.6276 196.427 1.67643 196.512 1.74805C196.603 1.81315 196.674 1.89779 196.727 2.00195C196.779 2.10612 196.805 2.23633 196.805 2.39258C196.805 2.56836 196.772 2.85156 196.707 3.24219C196.642 3.6263 196.548 4.09505 196.424 4.64844C196.307 5.19531 196.16 5.81706 195.984 6.51367C195.809 7.20378 195.613 7.93945 195.398 8.7207C196.167 7.48372 196.919 6.57878 197.654 6.00586C198.39 5.42643 199.07 5.13672 199.695 5.13672C200.073 5.13672 200.382 5.21484 200.623 5.37109C200.864 5.52083 201.053 5.7194 201.189 5.9668C201.326 6.20768 201.417 6.48112 201.463 6.78711C201.515 7.0931 201.541 7.40234 201.541 7.71484C201.541 8.25521 201.473 8.8151 201.336 9.39453C201.206 9.97396 201.017 10.5371 200.77 11.084C200.529 11.6309 200.236 12.1517 199.891 12.6465C199.552 13.1348 199.171 13.5645 198.748 13.9355C198.331 14.3066 197.882 14.5996 197.4 14.8145C196.919 15.0293 196.414 15.1367 195.887 15.1367C195.542 15.1367 195.203 15.0911 194.871 15C194.546 14.9154 194.236 14.7852 193.943 14.6094C193.781 14.7786 193.595 14.8991 193.387 14.9707C193.185 15.0358 192.964 15.0684 192.723 15.0684C192.26 15.0684 191.785 14.9316 191.297 14.6582C191.46 14.3978 191.606 14.1016 191.736 13.7695C191.873 13.4375 192.007 13.0306 192.137 12.5488C192.26 12.041 192.391 11.4941 192.527 10.9082C192.671 10.3223 192.814 9.71354 192.957 9.08203C193.107 8.45052 193.257 7.80599 193.406 7.14844C193.556 6.48438 193.699 5.82682 193.836 5.17578ZM198.904 8.75C198.917 8.65885 198.927 8.5612 198.934 8.45703C198.94 8.35286 198.943 8.24219 198.943 8.125C198.943 7.98828 198.934 7.85482 198.914 7.72461C198.901 7.5944 198.872 7.48047 198.826 7.38281C198.787 7.28516 198.729 7.20703 198.65 7.14844C198.572 7.08333 198.475 7.05078 198.357 7.05078C198.208 7.05078 198.025 7.14844 197.811 7.34375C197.596 7.53255 197.365 7.78646 197.117 8.10547C196.87 8.41797 196.613 8.77604 196.346 9.17969C196.085 9.57682 195.835 9.98698 195.594 10.4102C195.359 10.8268 195.145 11.237 194.949 11.6406C194.754 12.0443 194.598 12.4023 194.48 12.7148C194.493 12.8971 194.549 13.0566 194.646 13.1934C194.744 13.3236 194.865 13.4342 195.008 13.5254C195.158 13.61 195.317 13.6751 195.486 13.7207C195.662 13.7598 195.835 13.7793 196.004 13.7793C196.323 13.7793 196.642 13.6361 196.961 13.3496C197.28 13.0632 197.57 12.6855 197.83 12.2168C198.097 11.748 198.325 11.2142 198.514 10.6152C198.702 10.0098 198.833 9.38802 198.904 8.75ZM206.395 13.7598C207.039 13.6947 207.615 13.5286 208.123 13.2617C208.631 12.9883 209.119 12.6237 209.588 12.168C209.712 12.3958 209.764 12.64 209.744 12.9004C209.731 13.1543 209.64 13.3854 209.471 13.5938C209.321 13.7826 209.132 13.9616 208.904 14.1309C208.683 14.2936 208.426 14.4401 208.133 14.5703C207.241 14.974 206.29 15.1758 205.281 15.1758C204.227 15.1758 203.406 14.9479 202.82 14.4922C202.241 14.0365 201.928 13.3431 201.883 12.4121C201.863 11.9499 201.886 11.4909 201.951 11.0352C202.023 10.5794 202.133 10.1367 202.283 9.70703C202.433 9.27734 202.625 8.86719 202.859 8.47656C203.094 8.08594 203.367 7.72461 203.68 7.39258C204.292 6.66341 204.969 6.11328 205.711 5.74219C206.453 5.36458 207.231 5.17578 208.045 5.17578C208.8 5.17578 209.36 5.33529 209.725 5.6543C210.089 5.9668 210.265 6.43229 210.252 7.05078C210.252 7.35677 210.158 7.67904 209.969 8.01758C209.78 8.34961 209.51 8.68164 209.158 9.01367C208.807 9.33919 208.383 9.64844 207.889 9.94141C207.394 10.2344 206.844 10.4883 206.238 10.7031C206.095 10.7552 205.923 10.8236 205.721 10.9082C205.519 10.9928 205.327 11.0872 205.145 11.1914C204.962 11.2956 204.806 11.4095 204.676 11.5332C204.546 11.6504 204.477 11.7676 204.471 11.8848C204.458 12.1061 204.467 12.3079 204.5 12.4902C204.533 12.666 204.591 12.8125 204.676 12.9297C204.871 13.2227 205.118 13.4473 205.418 13.6035C205.724 13.7533 206.049 13.8053 206.395 13.7598ZM204.832 9.85352C204.819 9.91862 204.803 9.99023 204.783 10.0684C204.77 10.14 204.751 10.2246 204.725 10.3223C204.705 10.4199 204.682 10.5306 204.656 10.6543C204.734 10.4915 204.826 10.3516 204.93 10.2344C205.034 10.1172 205.148 10.013 205.271 9.92188C205.402 9.83073 205.542 9.74609 205.691 9.66797C205.841 9.58333 206.001 9.49544 206.17 9.4043C206.456 9.24805 206.694 9.0918 206.883 8.93555C207.078 8.7793 207.238 8.6263 207.361 8.47656C207.485 8.32682 207.579 8.17383 207.645 8.01758C207.716 7.86133 207.775 7.70508 207.82 7.54883C207.866 7.39258 207.885 7.24284 207.879 7.09961C207.872 6.95638 207.84 6.83268 207.781 6.72852C207.729 6.61784 207.648 6.5332 207.537 6.47461C207.433 6.40951 207.299 6.37695 207.137 6.37695C206.648 6.37695 206.206 6.67643 205.809 7.27539C205.418 7.86784 205.092 8.72721 204.832 9.85352ZM215.652 6.03516C215.288 6.03516 215.021 6.13281 214.852 6.32812C214.682 6.52344 214.598 6.79688 214.598 7.14844C214.598 7.33073 214.637 7.50651 214.715 7.67578C214.799 7.84505 214.917 8.01758 215.066 8.19336C215.262 8.42773 215.451 8.65885 215.633 8.88672C215.822 9.11458 215.988 9.35221 216.131 9.59961C216.281 9.84701 216.401 10.1107 216.492 10.3906C216.583 10.6641 216.629 10.9635 216.629 11.2891C216.629 11.8294 216.515 12.334 216.287 12.8027C216.059 13.2715 215.753 13.6784 215.369 14.0234C214.985 14.3685 214.542 14.6387 214.041 14.834C213.546 15.0293 213.025 15.127 212.479 15.127C212.166 15.127 211.85 15.0781 211.531 14.9805C211.219 14.8828 210.936 14.7396 210.682 14.5508C210.428 14.3555 210.219 14.1211 210.057 13.8477C209.894 13.5742 209.812 13.2617 209.812 12.9102C209.812 12.7604 209.835 12.6237 209.881 12.5C209.926 12.3763 209.982 12.2656 210.047 12.168C210.118 12.0703 210.197 11.9857 210.281 11.9141C210.366 11.8424 210.451 11.7839 210.535 11.7383C210.639 12.0182 210.76 12.2852 210.896 12.5391C211.04 12.793 211.199 13.0208 211.375 13.2227C211.557 13.418 211.759 13.5775 211.98 13.7012C212.208 13.8249 212.459 13.8932 212.732 13.9062C213.156 13.9062 213.491 13.7891 213.738 13.5547C213.992 13.3138 214.119 12.9492 214.119 12.4609C214.119 12.2526 214.077 12.0573 213.992 11.875C213.908 11.6862 213.797 11.5039 213.66 11.3281C213.523 11.1523 213.367 10.9766 213.191 10.8008C213.022 10.625 212.85 10.4395 212.674 10.2441C212.446 9.96419 212.27 9.65495 212.146 9.31641C212.023 8.97786 211.961 8.63281 211.961 8.28125C211.961 7.70182 212.091 7.20378 212.352 6.78711C212.618 6.36393 212.964 6.01888 213.387 5.75195C213.81 5.47852 214.282 5.27669 214.803 5.14648C215.324 5.01628 215.844 4.95117 216.365 4.95117C216.691 4.95117 216.928 4.99023 217.078 5.06836C217.234 5.14648 217.339 5.28971 217.391 5.49805C217.391 5.68034 217.342 5.85612 217.244 6.02539C217.153 6.18815 216.971 6.36393 216.697 6.55273C216.515 6.37695 216.336 6.24674 216.16 6.16211C215.984 6.07747 215.815 6.03516 215.652 6.03516ZM224.402 6.20117C224.402 6.41602 224.36 6.61133 224.275 6.78711C224.197 6.96289 224.09 7.11589 223.953 7.24609C223.816 7.36979 223.657 7.46745 223.475 7.53906C223.292 7.60417 223.1 7.63672 222.898 7.63672C222.716 7.63672 222.57 7.63346 222.459 7.62695C222.348 7.62044 222.212 7.61719 222.049 7.61719C221.977 7.61719 221.906 7.62044 221.834 7.62695C221.769 7.62695 221.701 7.63672 221.629 7.65625C221.538 8.09245 221.437 8.54818 221.326 9.02344C221.222 9.49219 221.108 9.96745 220.984 10.4492C220.945 10.5859 220.91 10.7357 220.877 10.8984C220.844 11.0547 220.815 11.2174 220.789 11.3867C220.763 11.556 220.74 11.7253 220.721 11.8945C220.708 12.0638 220.701 12.2233 220.701 12.373C220.734 12.946 220.968 13.2324 221.404 13.2324C221.456 13.2324 221.518 13.2129 221.59 13.1738C221.661 13.1348 221.736 13.0827 221.814 13.0176C221.893 12.9525 221.974 12.8809 222.059 12.8027C222.15 12.7181 222.234 12.6335 222.312 12.5488C222.605 12.2428 222.84 12.015 223.016 11.8652C223.191 11.709 223.325 11.6309 223.416 11.6309C223.475 11.6309 223.504 11.6862 223.504 11.7969C223.504 12.0117 223.455 12.2428 223.357 12.4902C223.26 12.7376 223.13 12.9818 222.967 13.2227C222.804 13.4635 222.612 13.6979 222.391 13.9258C222.176 14.1471 221.951 14.3424 221.717 14.5117C221.482 14.681 221.245 14.8177 221.004 14.9219C220.763 15.0195 220.535 15.0684 220.32 15.0684C219.949 15.0684 219.63 15.0163 219.363 14.9121C219.096 14.8014 218.878 14.6452 218.709 14.4434C218.546 14.2415 218.426 13.9974 218.348 13.7109C218.27 13.418 218.23 13.0924 218.23 12.7344C218.23 12.5521 218.24 12.3698 218.26 12.1875C218.286 11.9987 218.312 11.8099 218.338 11.6211C218.383 11.3542 218.423 11.1263 218.455 10.9375C218.488 10.7422 218.523 10.5469 218.562 10.3516C218.608 10.1497 218.657 9.92513 218.709 9.67773C218.768 9.43034 218.842 9.12109 218.934 8.75C219.031 8.3724 219.126 7.97852 219.217 7.56836C219.314 7.1582 219.402 6.75781 219.48 6.36719C219.559 5.97656 219.62 5.60872 219.666 5.26367C219.712 4.91211 219.734 4.60612 219.734 4.3457C219.734 4.17643 219.721 4.01367 219.695 3.85742C219.676 3.70117 219.627 3.53516 219.549 3.35938C219.926 3.13802 220.271 2.98177 220.584 2.89062C220.896 2.79948 221.199 2.75391 221.492 2.75391C221.785 2.75391 222.003 2.83529 222.146 2.99805C222.296 3.1543 222.371 3.36914 222.371 3.64258C222.371 3.61654 222.342 3.81836 222.283 4.24805C222.225 4.67122 222.107 5.32878 221.932 6.2207H222.693C222.967 6.2207 223.24 6.21094 223.514 6.19141C223.794 6.16536 224.09 6.12956 224.402 6.08398V6.20117ZM233.68 13.7598C234.324 13.6947 234.9 13.5286 235.408 13.2617C235.916 12.9883 236.404 12.6237 236.873 12.168C236.997 12.3958 237.049 12.64 237.029 12.9004C237.016 13.1543 236.925 13.3854 236.756 13.5938C236.606 13.7826 236.417 13.9616 236.189 14.1309C235.968 14.2936 235.711 14.4401 235.418 14.5703C234.526 14.974 233.576 15.1758 232.566 15.1758C231.512 15.1758 230.691 14.9479 230.105 14.4922C229.526 14.0365 229.214 13.3431 229.168 12.4121C229.148 11.9499 229.171 11.4909 229.236 11.0352C229.308 10.5794 229.419 10.1367 229.568 9.70703C229.718 9.27734 229.91 8.86719 230.145 8.47656C230.379 8.08594 230.652 7.72461 230.965 7.39258C231.577 6.66341 232.254 6.11328 232.996 5.74219C233.738 5.36458 234.516 5.17578 235.33 5.17578C236.085 5.17578 236.645 5.33529 237.01 5.6543C237.374 5.9668 237.55 6.43229 237.537 7.05078C237.537 7.35677 237.443 7.67904 237.254 8.01758C237.065 8.34961 236.795 8.68164 236.443 9.01367C236.092 9.33919 235.669 9.64844 235.174 9.94141C234.679 10.2344 234.129 10.4883 233.523 10.7031C233.38 10.7552 233.208 10.8236 233.006 10.9082C232.804 10.9928 232.612 11.0872 232.43 11.1914C232.247 11.2956 232.091 11.4095 231.961 11.5332C231.831 11.6504 231.762 11.7676 231.756 11.8848C231.743 12.1061 231.753 12.3079 231.785 12.4902C231.818 12.666 231.876 12.8125 231.961 12.9297C232.156 13.2227 232.404 13.4473 232.703 13.6035C233.009 13.7533 233.335 13.8053 233.68 13.7598ZM232.117 9.85352C232.104 9.91862 232.088 9.99023 232.068 10.0684C232.055 10.14 232.036 10.2246 232.01 10.3223C231.99 10.4199 231.967 10.5306 231.941 10.6543C232.02 10.4915 232.111 10.3516 232.215 10.2344C232.319 10.1172 232.433 10.013 232.557 9.92188C232.687 9.83073 232.827 9.74609 232.977 9.66797C233.126 9.58333 233.286 9.49544 233.455 9.4043C233.742 9.24805 233.979 9.0918 234.168 8.93555C234.363 8.7793 234.523 8.6263 234.646 8.47656C234.77 8.32682 234.865 8.17383 234.93 8.01758C235.001 7.86133 235.06 7.70508 235.105 7.54883C235.151 7.39258 235.171 7.24284 235.164 7.09961C235.158 6.95638 235.125 6.83268 235.066 6.72852C235.014 6.61784 234.933 6.5332 234.822 6.47461C234.718 6.40951 234.585 6.37695 234.422 6.37695C233.934 6.37695 233.491 6.67643 233.094 7.27539C232.703 7.86784 232.378 8.72721 232.117 9.85352ZM239.188 15.1758C239.122 15.1888 239.057 15.1953 238.992 15.1953C238.934 15.2018 238.872 15.2051 238.807 15.2051C238.592 15.2051 238.39 15.1823 238.201 15.1367C238.012 15.0911 237.846 15.026 237.703 14.9414C237.566 14.8568 237.459 14.7559 237.381 14.6387C237.303 14.515 237.264 14.3783 237.264 14.2285C237.264 14.0202 237.322 13.7891 237.439 13.5352C237.557 13.2812 237.742 12.9948 237.996 12.6758C238.25 12.3568 238.576 12.002 238.973 11.6113C239.37 11.2207 239.848 10.7845 240.408 10.3027C240.239 9.84701 240.086 9.41732 239.949 9.01367C239.812 8.61003 239.682 8.2487 239.559 7.92969C239.441 7.61068 239.324 7.33724 239.207 7.10938C239.09 6.875 238.963 6.69922 238.826 6.58203C238.898 6.42578 238.999 6.2793 239.129 6.14258C239.266 6.00586 239.415 5.88867 239.578 5.79102C239.747 5.68685 239.923 5.60872 240.105 5.55664C240.294 5.49805 240.48 5.46875 240.662 5.46875C240.838 5.46875 240.994 5.50781 241.131 5.58594C241.274 5.66406 241.395 5.76823 241.492 5.89844C241.596 6.02214 241.684 6.16862 241.756 6.33789C241.827 6.50065 241.883 6.66992 241.922 6.8457C242.007 7.19727 242.101 7.56185 242.205 7.93945C242.316 8.31706 242.426 8.67188 242.537 9.00391C243.351 8.15755 243.947 7.43164 244.324 6.82617C244.702 6.21419 244.891 5.70964 244.891 5.3125C244.891 5.28646 244.923 5.26693 244.988 5.25391C245.06 5.23438 245.138 5.22135 245.223 5.21484C245.314 5.20833 245.398 5.20508 245.477 5.20508C245.561 5.20508 245.613 5.20508 245.633 5.20508C246.01 5.20508 246.284 5.26693 246.453 5.39062C246.629 5.50781 246.717 5.68685 246.717 5.92773C246.717 6.16211 246.626 6.4388 246.443 6.75781C246.261 7.07682 246.007 7.42839 245.682 7.8125C245.363 8.19661 244.982 8.61003 244.539 9.05273C244.103 9.48893 243.628 9.94792 243.113 10.4297C243.276 10.8789 243.458 11.3053 243.66 11.709C243.868 12.1061 244.08 12.4642 244.295 12.7832C244.51 13.0957 244.728 13.3659 244.949 13.5938C245.171 13.8151 245.379 13.9779 245.574 14.082C245.262 14.4271 244.926 14.6908 244.568 14.873C244.21 15.0488 243.849 15.1367 243.484 15.1367C243.257 15.1367 243.038 15.0586 242.83 14.9023C242.622 14.7461 242.417 14.5247 242.215 14.2383C242.013 13.9453 241.811 13.5938 241.609 13.1836C241.414 12.7669 241.212 12.2982 241.004 11.7773C240.724 12.0247 240.467 12.2819 240.232 12.5488C240.005 12.8092 239.806 13.0729 239.637 13.3398C239.474 13.6003 239.347 13.8542 239.256 14.1016C239.165 14.349 239.119 14.5801 239.119 14.7949C239.119 14.9316 239.142 15.0586 239.188 15.1758ZM255.037 5.2832C255.298 5.31576 255.519 5.41016 255.701 5.56641C255.883 5.72266 256.033 5.91471 256.15 6.14258C256.268 6.37044 256.352 6.62109 256.404 6.89453C256.463 7.16797 256.492 7.44141 256.492 7.71484C256.492 8.29427 256.421 8.88021 256.277 9.47266C256.134 10.0586 255.932 10.625 255.672 11.1719C255.411 11.7122 255.102 12.2201 254.744 12.6953C254.386 13.1641 253.989 13.5742 253.553 13.9258C253.123 14.2708 252.664 14.5443 252.176 14.7461C251.688 14.9479 251.186 15.0488 250.672 15.0488C250.379 15.0488 250.089 15.0228 249.803 14.9707C249.523 14.9186 249.249 14.8307 248.982 14.707C248.93 14.9023 248.882 15.1074 248.836 15.3223C248.79 15.5371 248.748 15.752 248.709 15.9668C248.67 16.1816 248.637 16.3932 248.611 16.6016C248.592 16.8164 248.582 17.0215 248.582 17.2168C248.582 17.3665 248.602 17.513 248.641 17.6562C248.68 17.806 248.722 17.959 248.768 18.1152C248.442 18.278 248.133 18.3919 247.84 18.457C247.547 18.5286 247.29 18.5645 247.068 18.5645C246.697 18.5645 246.427 18.4798 246.258 18.3105C246.089 18.1413 246.004 17.8906 246.004 17.5586C246.004 17.4284 246.01 17.2884 246.023 17.1387C246.043 16.9889 246.069 16.8327 246.102 16.6699C246.115 16.6048 246.147 16.4583 246.199 16.2305C246.258 16.0026 246.326 15.7194 246.404 15.3809C246.489 15.0423 246.58 14.6647 246.678 14.248C246.775 13.8314 246.876 13.4049 246.98 12.9688C247.085 12.526 247.186 12.0898 247.283 11.6602C247.387 11.2305 247.482 10.8333 247.566 10.4688C247.651 10.1042 247.726 9.78841 247.791 9.52148C247.856 9.24805 247.902 9.05273 247.928 8.93555C248.038 8.42773 248.126 7.97201 248.191 7.56836C248.263 7.16471 248.299 6.76758 248.299 6.37695C248.299 6.22721 248.286 6.08398 248.26 5.94727C248.234 5.80404 248.188 5.66732 248.123 5.53711C248.481 5.36784 248.813 5.2474 249.119 5.17578C249.425 5.10417 249.708 5.06836 249.969 5.06836C250.659 5.06836 251.004 5.34505 251.004 5.89844C251.004 6.0612 250.949 6.38997 250.838 6.88477C250.727 7.37956 250.577 7.99154 250.389 8.7207C250.649 8.30404 250.932 7.89062 251.238 7.48047C251.551 7.0638 251.883 6.68945 252.234 6.35742C252.586 6.02539 252.957 5.75846 253.348 5.55664C253.738 5.34831 254.148 5.24414 254.578 5.24414C254.65 5.24414 254.721 5.2474 254.793 5.25391C254.871 5.26042 254.952 5.27018 255.037 5.2832ZM253.836 8.25195C253.836 7.90039 253.794 7.63021 253.709 7.44141C253.624 7.24609 253.484 7.14844 253.289 7.14844C253.133 7.14844 252.944 7.24284 252.723 7.43164C252.501 7.61393 252.264 7.86133 252.01 8.17383C251.762 8.47982 251.508 8.83138 251.248 9.22852C250.988 9.62565 250.74 10.0326 250.506 10.4492C250.271 10.8659 250.057 11.2793 249.861 11.6895C249.673 12.0931 249.52 12.4577 249.402 12.7832C249.428 12.9134 249.49 13.0306 249.588 13.1348C249.686 13.2389 249.803 13.3301 249.939 13.4082C250.076 13.4798 250.223 13.5384 250.379 13.584C250.542 13.623 250.698 13.6426 250.848 13.6426C251.108 13.6426 251.359 13.571 251.6 13.4277C251.84 13.2845 252.068 13.0892 252.283 12.8418C252.498 12.5879 252.697 12.2949 252.879 11.9629C253.061 11.6243 253.217 11.263 253.348 10.8789C253.484 10.4948 253.595 10.0977 253.68 9.6875C253.764 9.27734 253.816 8.87044 253.836 8.4668V8.25195ZM261.453 13.7598C262.098 13.6947 262.674 13.5286 263.182 13.2617C263.689 12.9883 264.178 12.6237 264.646 12.168C264.77 12.3958 264.822 12.64 264.803 12.9004C264.79 13.1543 264.699 13.3854 264.529 13.5938C264.38 13.7826 264.191 13.9616 263.963 14.1309C263.742 14.2936 263.484 14.4401 263.191 14.5703C262.299 14.974 261.349 15.1758 260.34 15.1758C259.285 15.1758 258.465 14.9479 257.879 14.4922C257.299 14.0365 256.987 13.3431 256.941 12.4121C256.922 11.9499 256.945 11.4909 257.01 11.0352C257.081 10.5794 257.192 10.1367 257.342 9.70703C257.492 9.27734 257.684 8.86719 257.918 8.47656C258.152 8.08594 258.426 7.72461 258.738 7.39258C259.35 6.66341 260.027 6.11328 260.77 5.74219C261.512 5.36458 262.29 5.17578 263.104 5.17578C263.859 5.17578 264.419 5.33529 264.783 5.6543C265.148 5.9668 265.324 6.43229 265.311 7.05078C265.311 7.35677 265.216 7.67904 265.027 8.01758C264.839 8.34961 264.568 8.68164 264.217 9.01367C263.865 9.33919 263.442 9.64844 262.947 9.94141C262.452 10.2344 261.902 10.4883 261.297 10.7031C261.154 10.7552 260.981 10.8236 260.779 10.9082C260.577 10.9928 260.385 11.0872 260.203 11.1914C260.021 11.2956 259.865 11.4095 259.734 11.5332C259.604 11.6504 259.536 11.7676 259.529 11.8848C259.516 12.1061 259.526 12.3079 259.559 12.4902C259.591 12.666 259.65 12.8125 259.734 12.9297C259.93 13.2227 260.177 13.4473 260.477 13.6035C260.783 13.7533 261.108 13.8053 261.453 13.7598ZM259.891 9.85352C259.878 9.91862 259.861 9.99023 259.842 10.0684C259.829 10.14 259.809 10.2246 259.783 10.3223C259.764 10.4199 259.741 10.5306 259.715 10.6543C259.793 10.4915 259.884 10.3516 259.988 10.2344C260.092 10.1172 260.206 10.013 260.33 9.92188C260.46 9.83073 260.6 9.74609 260.75 9.66797C260.9 9.58333 261.059 9.49544 261.229 9.4043C261.515 9.24805 261.753 9.0918 261.941 8.93555C262.137 8.7793 262.296 8.6263 262.42 8.47656C262.544 8.32682 262.638 8.17383 262.703 8.01758C262.775 7.86133 262.833 7.70508 262.879 7.54883C262.924 7.39258 262.944 7.24284 262.938 7.09961C262.931 6.95638 262.898 6.83268 262.84 6.72852C262.788 6.61784 262.706 6.5332 262.596 6.47461C262.492 6.40951 262.358 6.37695 262.195 6.37695C261.707 6.37695 261.264 6.67643 260.867 7.27539C260.477 7.86784 260.151 8.72721 259.891 9.85352ZM272.596 12.4609C273.247 11.7773 273.647 11.4616 273.797 11.5137C273.953 11.5658 273.852 11.9596 273.494 12.6953C273.344 13.0013 273.143 13.2975 272.889 13.584C272.635 13.8704 272.358 14.1243 272.059 14.3457C271.766 14.5671 271.469 14.7461 271.17 14.8828C270.87 15.0195 270.6 15.0879 270.359 15.0879C270.105 15.0879 269.878 15.0553 269.676 14.9902C269.474 14.9251 269.305 14.8242 269.168 14.6875C269.031 14.5443 268.93 14.3652 268.865 14.1504C268.807 13.9355 268.797 13.6784 268.836 13.3789C268.855 13.1966 268.888 12.9948 268.934 12.7734C268.979 12.5521 269.031 12.3307 269.09 12.1094C269.148 11.8815 269.207 11.6634 269.266 11.4551C269.331 11.2402 269.389 11.0547 269.441 10.8984C269.474 10.7878 269.52 10.638 269.578 10.4492C269.643 10.2604 269.712 10.0521 269.783 9.82422C269.861 9.58984 269.939 9.35221 270.018 9.11133C270.102 8.87044 270.18 8.64258 270.252 8.42773C270.324 8.21289 270.382 8.02734 270.428 7.87109C270.48 7.70833 270.516 7.5944 270.535 7.5293C270.594 7.34701 270.63 7.21354 270.643 7.12891C270.656 7.04427 270.604 7.01172 270.486 7.03125C270.447 7.03776 270.376 7.05078 270.271 7.07031C270.167 7.08333 270.044 7.09635 269.9 7.10938C269.757 7.1224 269.598 7.13542 269.422 7.14844C269.253 7.16146 269.08 7.16797 268.904 7.16797C268.839 7.35026 268.755 7.57487 268.65 7.8418C268.553 8.10872 268.419 8.38867 268.25 8.68164C268.087 8.97461 267.908 9.25781 267.713 9.53125C267.518 9.79818 267.319 10.0065 267.117 10.1562C266.889 10.3255 266.645 10.4427 266.385 10.5078C266.124 10.5729 265.87 10.5599 265.623 10.4688C265.857 10.1953 266.053 9.93164 266.209 9.67773C266.372 9.42383 266.505 9.16667 266.609 8.90625C266.72 8.64583 266.801 8.37565 266.854 8.0957C266.906 7.80924 266.941 7.5 266.961 7.16797C266.681 7.0638 266.479 6.91732 266.355 6.72852C266.238 6.53971 266.18 6.33789 266.18 6.12305C266.18 5.9082 266.222 5.6901 266.307 5.46875C266.398 5.2474 266.508 5.05208 266.639 4.88281C266.775 4.70703 266.922 4.57031 267.078 4.47266C267.234 4.375 267.374 4.33919 267.498 4.36523C267.492 4.44336 267.469 4.54102 267.43 4.6582C267.397 4.76888 267.381 4.87956 267.381 4.99023C267.387 5.10091 267.436 5.20508 267.527 5.30273C267.618 5.40039 267.791 5.47201 268.045 5.51758C268.305 5.55664 268.667 5.56641 269.129 5.54688C269.598 5.52083 270.206 5.44271 270.955 5.3125C271.105 5.27995 271.287 5.24414 271.502 5.20508C271.723 5.15951 271.941 5.14648 272.156 5.16602C272.371 5.18555 272.563 5.25065 272.732 5.36133C272.908 5.47201 273.025 5.66081 273.084 5.92773C273.149 6.23372 273.156 6.54948 273.104 6.875C273.051 7.19401 272.973 7.51628 272.869 7.8418C272.765 8.16732 272.648 8.49284 272.518 8.81836C272.387 9.13737 272.277 9.44661 272.186 9.74609C272.029 10.2604 271.88 10.7324 271.736 11.1621C271.593 11.5918 271.508 11.9727 271.482 12.3047C271.476 12.4023 271.469 12.5033 271.463 12.6074C271.463 12.7051 271.466 12.793 271.473 12.8711C271.479 12.9492 271.495 13.0143 271.521 13.0664C271.548 13.112 271.587 13.1315 271.639 13.125C271.743 13.1185 271.876 13.0501 272.039 12.9199C272.202 12.7832 272.387 12.6302 272.596 12.4609ZM279.031 0.888672C279.311 0.888672 279.52 0.934245 279.656 1.02539C279.799 1.11003 279.878 1.2207 279.891 1.35742C279.891 1.38997 279.891 1.42253 279.891 1.45508C279.891 1.48763 279.884 1.52669 279.871 1.57227C279.852 1.6569 279.822 1.74154 279.783 1.82617C279.751 1.91081 279.708 2.00521 279.656 2.10938C279.604 2.21354 279.536 2.33398 279.451 2.4707C279.373 2.60091 279.275 2.75716 279.158 2.93945C278.963 3.24544 278.807 3.48307 278.689 3.65234C278.572 3.8151 278.455 3.94206 278.338 4.0332C278.227 4.11784 278.097 4.18294 277.947 4.22852C277.798 4.26758 277.592 4.31315 277.332 4.36523C277.143 4.4043 276.987 4.41406 276.863 4.39453C276.746 4.375 276.652 4.33919 276.58 4.28711C276.508 4.22852 276.456 4.16016 276.424 4.08203C276.398 4.00391 276.385 3.92904 276.385 3.85742C276.385 3.72721 276.401 3.57096 276.434 3.38867C276.466 3.19987 276.502 3.00456 276.541 2.80273C276.58 2.5944 276.613 2.38607 276.639 2.17773C276.671 1.96289 276.684 1.76758 276.678 1.5918C276.678 1.54622 276.665 1.50391 276.639 1.46484C276.619 1.42578 276.6 1.38346 276.58 1.33789C276.951 1.19466 277.345 1.08398 277.762 1.00586C278.178 0.927734 278.602 0.888672 279.031 0.888672ZM278.172 12.5879C278.96 11.722 279.354 11.4779 279.354 11.8555C279.354 12.0443 279.259 12.3665 279.07 12.8223C278.94 13.1152 278.761 13.3984 278.533 13.6719C278.305 13.9453 278.055 14.1895 277.781 14.4043C277.508 14.6191 277.228 14.7917 276.941 14.9219C276.661 15.0456 276.404 15.1074 276.17 15.1074C275.688 15.1074 275.307 14.974 275.027 14.707C274.754 14.4336 274.601 14.0169 274.568 13.457C274.555 13.3594 274.549 13.2161 274.549 13.0273C274.555 12.8385 274.572 12.6172 274.598 12.3633C274.624 12.1094 274.663 11.8294 274.715 11.5234C274.767 11.2174 274.839 10.8952 274.93 10.5566C275.079 10.0098 275.197 9.48893 275.281 8.99414C275.372 8.49935 275.454 8.08594 275.525 7.75391C275.558 7.57161 275.581 7.39909 275.594 7.23633C275.607 7.06706 275.613 6.91406 275.613 6.77734C275.613 6.4388 275.522 6.13932 275.34 5.87891C275.659 5.76172 275.968 5.67057 276.268 5.60547C276.567 5.53385 276.86 5.49805 277.146 5.49805C277.296 5.49805 277.456 5.51758 277.625 5.55664C277.794 5.5957 277.931 5.67057 278.035 5.78125C278.257 6.00911 278.331 6.32161 278.26 6.71875C278.227 6.86849 278.198 7.01497 278.172 7.1582C278.146 7.30143 278.107 7.45443 278.055 7.61719C277.99 7.87109 277.921 8.12826 277.85 8.38867C277.778 8.64909 277.71 8.89974 277.645 9.14062C277.586 9.375 277.531 9.58984 277.479 9.78516C277.426 9.98047 277.387 10.14 277.361 10.2637C277.322 10.4199 277.286 10.599 277.254 10.8008C277.221 10.9961 277.192 11.1947 277.166 11.3965C277.146 11.5983 277.127 11.7904 277.107 11.9727C277.094 12.1549 277.088 12.3112 277.088 12.4414C277.088 12.5326 277.088 12.6237 277.088 12.7148C277.094 12.806 277.104 12.8906 277.117 12.9688C277.13 13.0404 277.15 13.099 277.176 13.1445C277.202 13.1901 277.238 13.2129 277.283 13.2129C277.394 13.2129 277.524 13.151 277.674 13.0273C277.824 12.9036 277.99 12.7572 278.172 12.5879ZM284.07 13.7598C284.715 13.6947 285.291 13.5286 285.799 13.2617C286.307 12.9883 286.795 12.6237 287.264 12.168C287.387 12.3958 287.439 12.64 287.42 12.9004C287.407 13.1543 287.316 13.3854 287.146 13.5938C286.997 13.7826 286.808 13.9616 286.58 14.1309C286.359 14.2936 286.102 14.4401 285.809 14.5703C284.917 14.974 283.966 15.1758 282.957 15.1758C281.902 15.1758 281.082 14.9479 280.496 14.4922C279.917 14.0365 279.604 13.3431 279.559 12.4121C279.539 11.9499 279.562 11.4909 279.627 11.0352C279.699 10.5794 279.809 10.1367 279.959 9.70703C280.109 9.27734 280.301 8.86719 280.535 8.47656C280.77 8.08594 281.043 7.72461 281.355 7.39258C281.967 6.66341 282.645 6.11328 283.387 5.74219C284.129 5.36458 284.907 5.17578 285.721 5.17578C286.476 5.17578 287.036 5.33529 287.4 5.6543C287.765 5.9668 287.941 6.43229 287.928 7.05078C287.928 7.35677 287.833 7.67904 287.645 8.01758C287.456 8.34961 287.186 8.68164 286.834 9.01367C286.482 9.33919 286.059 9.64844 285.564 9.94141C285.07 10.2344 284.52 10.4883 283.914 10.7031C283.771 10.7552 283.598 10.8236 283.396 10.9082C283.195 10.9928 283.003 11.0872 282.82 11.1914C282.638 11.2956 282.482 11.4095 282.352 11.5332C282.221 11.6504 282.153 11.7676 282.146 11.8848C282.133 12.1061 282.143 12.3079 282.176 12.4902C282.208 12.666 282.267 12.8125 282.352 12.9297C282.547 13.2227 282.794 13.4473 283.094 13.6035C283.4 13.7533 283.725 13.8053 284.07 13.7598ZM282.508 9.85352C282.495 9.91862 282.479 9.99023 282.459 10.0684C282.446 10.14 282.426 10.2246 282.4 10.3223C282.381 10.4199 282.358 10.5306 282.332 10.6543C282.41 10.4915 282.501 10.3516 282.605 10.2344C282.71 10.1172 282.824 10.013 282.947 9.92188C283.077 9.83073 283.217 9.74609 283.367 9.66797C283.517 9.58333 283.676 9.49544 283.846 9.4043C284.132 9.24805 284.37 9.0918 284.559 8.93555C284.754 8.7793 284.913 8.6263 285.037 8.47656C285.161 8.32682 285.255 8.17383 285.32 8.01758C285.392 7.86133 285.451 7.70508 285.496 7.54883C285.542 7.39258 285.561 7.24284 285.555 7.09961C285.548 6.95638 285.516 6.83268 285.457 6.72852C285.405 6.61784 285.324 6.5332 285.213 6.47461C285.109 6.40951 284.975 6.37695 284.812 6.37695C284.324 6.37695 283.882 6.67643 283.484 7.27539C283.094 7.86784 282.768 8.72721 282.508 9.85352ZM294.92 7.40234C294.796 7.40234 294.65 7.4707 294.48 7.60742C294.318 7.73763 294.139 7.91667 293.943 8.14453C293.755 8.36589 293.553 8.6263 293.338 8.92578C293.13 9.21875 292.921 9.53125 292.713 9.86328C292.492 10.2214 292.303 10.5436 292.146 10.8301C291.99 11.1165 291.84 11.416 291.697 11.7285C291.561 12.0345 291.414 12.3763 291.258 12.7539C291.108 13.125 290.926 13.5742 290.711 14.1016C290.646 14.2643 290.574 14.4076 290.496 14.5312C290.418 14.6484 290.324 14.7493 290.213 14.834C290.102 14.9121 289.965 14.9707 289.803 15.0098C289.64 15.0488 289.445 15.0684 289.217 15.0684C289.035 15.0684 288.826 15.0553 288.592 15.0293C288.364 15.0098 288.104 14.9772 287.811 14.9316C288.012 14.4303 288.201 13.9258 288.377 13.418C288.559 12.9036 288.725 12.3926 288.875 11.8848C289.227 10.7194 289.477 9.72005 289.627 8.88672C289.777 8.04688 289.852 7.38281 289.852 6.89453C289.852 6.66667 289.835 6.45508 289.803 6.25977C289.77 6.05794 289.718 5.88216 289.646 5.73242C290.044 5.55013 290.398 5.41992 290.711 5.3418C291.03 5.26367 291.307 5.22461 291.541 5.22461C291.652 5.22461 291.762 5.24089 291.873 5.27344C291.99 5.30599 292.094 5.35807 292.186 5.42969C292.277 5.49479 292.352 5.58268 292.41 5.69336C292.469 5.79753 292.498 5.92773 292.498 6.08398C292.498 6.45508 292.43 6.91732 292.293 7.4707C292.163 8.02409 292.013 8.6556 291.844 9.36523C292.124 8.8444 292.449 8.33333 292.82 7.83203C293.191 7.33073 293.582 6.88477 293.992 6.49414C294.402 6.09701 294.816 5.77799 295.232 5.53711C295.656 5.29622 296.056 5.17578 296.434 5.17578C296.635 5.17578 296.821 5.20833 296.99 5.27344C297.16 5.33854 297.303 5.42969 297.42 5.54688C297.544 5.66406 297.638 5.80404 297.703 5.9668C297.775 6.12305 297.811 6.29557 297.811 6.48438C297.811 6.89453 297.752 7.40234 297.635 8.00781C297.518 8.61328 297.374 9.27083 297.205 9.98047C297.14 10.2018 297.075 10.4232 297.01 10.6445C296.951 10.8659 296.896 11.084 296.844 11.2988C296.792 11.5137 296.749 11.7188 296.717 11.9141C296.684 12.1029 296.668 12.2786 296.668 12.4414C296.668 12.5326 296.668 12.6237 296.668 12.7148C296.674 12.806 296.684 12.8906 296.697 12.9688C296.71 13.0404 296.73 13.099 296.756 13.1445C296.782 13.1901 296.818 13.2129 296.863 13.2129C296.954 13.2129 297.078 13.1543 297.234 13.0371C297.397 12.9199 297.563 12.7702 297.732 12.5879C298.025 12.2884 298.253 12.0638 298.416 11.9141C298.579 11.7643 298.709 11.6895 298.807 11.6895C298.846 11.6895 298.875 11.6992 298.895 11.7188C298.914 11.7383 298.924 11.7773 298.924 11.8359C298.924 12.0573 298.875 12.2917 298.777 12.5391C298.68 12.7865 298.546 13.0339 298.377 13.2812C298.214 13.5221 298.022 13.7533 297.801 13.9746C297.586 14.1895 297.358 14.3815 297.117 14.5508C296.883 14.7201 296.645 14.8568 296.404 14.9609C296.163 15.0586 295.939 15.1074 295.73 15.1074C295.255 15.1074 294.868 14.974 294.568 14.707C294.269 14.4401 294.119 14.0234 294.119 13.457C294.119 13.1445 294.155 12.8255 294.227 12.5C294.298 12.1745 294.38 11.8066 294.471 11.3965C294.705 10.3743 294.884 9.55404 295.008 8.93555C295.132 8.31706 295.193 7.93945 295.193 7.80273C295.193 7.65299 295.164 7.54883 295.105 7.49023C295.053 7.43164 294.992 7.40234 294.92 7.40234ZM306.336 12.0801C306.395 12.1842 306.434 12.2852 306.453 12.3828C306.473 12.4805 306.482 12.5846 306.482 12.6953C306.482 12.9557 306.408 13.1966 306.258 13.418C306.115 13.6393 305.919 13.8444 305.672 14.0332C305.431 14.2155 305.154 14.3783 304.842 14.5215C304.529 14.6647 304.207 14.7852 303.875 14.8828C303.549 14.974 303.227 15.0456 302.908 15.0977C302.596 15.1497 302.312 15.1758 302.059 15.1758C299.897 15.1758 298.816 14.1634 298.816 12.1387C298.816 11.5397 298.891 10.9538 299.041 10.3809C299.191 9.80143 299.399 9.25456 299.666 8.74023C299.939 8.22591 300.262 7.75065 300.633 7.31445C301.01 6.87826 301.427 6.50391 301.883 6.19141C302.339 5.8724 302.827 5.625 303.348 5.44922C303.868 5.26693 304.406 5.17578 304.959 5.17578C305.734 5.17578 306.303 5.27018 306.668 5.45898C307.039 5.64779 307.225 5.93099 307.225 6.30859C307.225 6.47786 307.182 6.64062 307.098 6.79688C307.013 6.94661 306.893 7.08659 306.736 7.2168C306.587 7.34701 306.408 7.46419 306.199 7.56836C305.991 7.67253 305.766 7.76367 305.525 7.8418C305.467 7.58138 305.402 7.36003 305.33 7.17773C305.258 6.99544 305.174 6.85221 305.076 6.74805C304.979 6.63737 304.861 6.55924 304.725 6.51367C304.594 6.46159 304.438 6.43555 304.256 6.43555C303.878 6.43555 303.527 6.55599 303.201 6.79688C302.882 7.03125 302.602 7.37305 302.361 7.82227C302.127 8.27148 301.941 8.81836 301.805 9.46289C301.674 10.1074 301.609 10.8366 301.609 11.6504C301.609 11.9238 301.635 12.1842 301.688 12.4316C301.74 12.679 301.818 12.8971 301.922 13.0859C302.033 13.2682 302.173 13.4147 302.342 13.5254C302.518 13.6296 302.726 13.6816 302.967 13.6816C303.286 13.6816 303.602 13.6458 303.914 13.5742C304.233 13.4961 304.536 13.3887 304.822 13.252C305.115 13.1087 305.389 12.9395 305.643 12.7441C305.896 12.5488 306.128 12.3275 306.336 12.0801ZM311.551 13.7598C312.195 13.6947 312.771 13.5286 313.279 13.2617C313.787 12.9883 314.275 12.6237 314.744 12.168C314.868 12.3958 314.92 12.64 314.9 12.9004C314.887 13.1543 314.796 13.3854 314.627 13.5938C314.477 13.7826 314.288 13.9616 314.061 14.1309C313.839 14.2936 313.582 14.4401 313.289 14.5703C312.397 14.974 311.447 15.1758 310.438 15.1758C309.383 15.1758 308.562 14.9479 307.977 14.4922C307.397 14.0365 307.085 13.3431 307.039 12.4121C307.02 11.9499 307.042 11.4909 307.107 11.0352C307.179 10.5794 307.29 10.1367 307.439 9.70703C307.589 9.27734 307.781 8.86719 308.016 8.47656C308.25 8.08594 308.523 7.72461 308.836 7.39258C309.448 6.66341 310.125 6.11328 310.867 5.74219C311.609 5.36458 312.387 5.17578 313.201 5.17578C313.956 5.17578 314.516 5.33529 314.881 5.6543C315.245 5.9668 315.421 6.43229 315.408 7.05078C315.408 7.35677 315.314 7.67904 315.125 8.01758C314.936 8.34961 314.666 8.68164 314.314 9.01367C313.963 9.33919 313.54 9.64844 313.045 9.94141C312.55 10.2344 312 10.4883 311.395 10.7031C311.251 10.7552 311.079 10.8236 310.877 10.9082C310.675 10.9928 310.483 11.0872 310.301 11.1914C310.118 11.2956 309.962 11.4095 309.832 11.5332C309.702 11.6504 309.633 11.7676 309.627 11.8848C309.614 12.1061 309.624 12.3079 309.656 12.4902C309.689 12.666 309.747 12.8125 309.832 12.9297C310.027 13.2227 310.275 13.4473 310.574 13.6035C310.88 13.7533 311.206 13.8053 311.551 13.7598ZM309.988 9.85352C309.975 9.91862 309.959 9.99023 309.939 10.0684C309.926 10.14 309.907 10.2246 309.881 10.3223C309.861 10.4199 309.839 10.5306 309.812 10.6543C309.891 10.4915 309.982 10.3516 310.086 10.2344C310.19 10.1172 310.304 10.013 310.428 9.92188C310.558 9.83073 310.698 9.74609 310.848 9.66797C310.997 9.58333 311.157 9.49544 311.326 9.4043C311.613 9.24805 311.85 9.0918 312.039 8.93555C312.234 8.7793 312.394 8.6263 312.518 8.47656C312.641 8.32682 312.736 8.17383 312.801 8.01758C312.872 7.86133 312.931 7.70508 312.977 7.54883C313.022 7.39258 313.042 7.24284 313.035 7.09961C313.029 6.95638 312.996 6.83268 312.938 6.72852C312.885 6.61784 312.804 6.5332 312.693 6.47461C312.589 6.40951 312.456 6.37695 312.293 6.37695C311.805 6.37695 311.362 6.67643 310.965 7.27539C310.574 7.86784 310.249 8.72721 309.988 9.85352Z" fill="#FFFE20"/>
</svg>
