<svg width="20" height="20" viewBox="0 0 20 20" fill="none" xmlns="http://www.w3.org/2000/svg">
<g id="watch face">
<g id="Group">
<path id="Vector" fill-rule="evenodd" clip-rule="evenodd" d="M7.15523 3.08057C4.86036 3.08057 3 4.91947 3 7.18789V12.8117C3 15.0802 4.86036 16.9191 7.15523 16.9191H12.8448C15.1396 16.9191 17 15.0802 17 12.8117V7.18789C17 4.91947 15.1396 3.08057 12.8448 3.08057H7.15523ZM10.7791 6.91939C10.7791 6.49407 10.4303 6.14927 9.99999 6.14927C9.56972 6.14927 9.22089 6.49407 9.22089 6.91939V10.5091C9.22089 10.716 9.3041 10.9145 9.45213 11.0609L11.0073 12.5981C11.3116 12.8988 11.8048 12.8988 12.1091 12.5981C12.4134 12.2973 12.4134 11.8098 12.1091 11.509L10.7791 10.1943V6.91939Z" fill="white"/>
<path id="Vector_2" d="M7.83453 0H12.1654C13.2644 1.02683e-05 14.1552 0.880588 14.1552 1.96684H5.84474C5.84474 0.880588 6.7356 0 7.83453 0Z" fill="white"/>
<path id="Vector_3" d="M12.1654 20.0001H7.83453C6.7356 20.0001 5.84474 19.1195 5.84474 18.0332H14.1552C14.1552 19.1195 13.2644 20.0001 12.1654 20.0001Z" fill="white"/>
</g>
</g>
</svg>
