<svg width="24" height="24" viewBox="0 0 24 24" fill="none" xmlns="http://www.w3.org/2000/svg">
<path fill-rule="evenodd" clip-rule="evenodd" d="M15.05 3H20.15C20.3755 3 20.5917 3.08955 20.7511 3.24896C20.9105 3.40837 21 3.62457 21 3.85V8.95C21 9.17543 20.9105 9.39163 20.7511 9.55104C20.5917 9.71045 20.3755 9.8 20.15 9.8C19.9246 9.8 19.7084 9.71045 19.549 9.55104C19.3896 9.39163 19.3 9.17543 19.3 8.95V5.9019L12.251 12.9509C12.1726 13.0321 12.0788 13.0969 11.9751 13.1414C11.8714 13.186 11.7598 13.2094 11.647 13.2104C11.5341 13.2114 11.4222 13.1899 11.3177 13.1471C11.2133 13.1044 11.1183 13.0413 11.0385 12.9615C10.9587 12.8817 10.8956 12.7868 10.8529 12.6823C10.8101 12.5778 10.7886 12.4659 10.7896 12.3531C10.7906 12.2402 10.814 12.1287 10.8586 12.025C10.9031 11.9213 10.9679 11.8275 11.0491 11.7491L18.0981 4.7H15.05C14.8246 4.7 14.6084 4.61045 14.449 4.45104C14.2896 4.29163 14.2 4.07543 14.2 3.85C14.2 3.62457 14.2896 3.40837 14.449 3.24896C14.6084 3.08955 14.8246 3 15.05 3ZM17.849 10.5488C18.0084 10.3894 18.2246 10.2998 18.45 10.2998C18.6754 10.2998 18.8916 10.3894 19.051 10.5488C19.2104 10.7082 19.3 10.9244 19.3 11.1498V17.2384C19.2991 17.9708 19.0076 18.673 18.4895 19.1908C17.9715 19.7085 17.2691 19.9996 16.5366 20H6.76165C6.0292 19.9991 5.32703 19.7077 4.80926 19.1896C4.2915 18.6715 4.00045 17.9691 4 17.2367V7.4617C4.0009 6.72954 4.29215 6.02762 4.80986 5.50991C5.32758 4.99219 6.02949 4.70095 6.76165 4.70005H12.0503C12.2758 4.70005 12.492 4.7896 12.6514 4.94901C12.8108 5.10841 12.9003 5.32461 12.9003 5.55005C12.9003 5.77548 12.8108 5.99168 12.6514 6.15109C12.492 6.31049 12.2758 6.40005 12.0503 6.40005H6.76165C6.48015 6.40027 6.21025 6.5122 6.0112 6.71124C5.81215 6.91029 5.70022 7.1802 5.7 7.4617V17.2384C5.70022 17.5199 5.81215 17.7898 6.0112 17.9888C6.21025 18.1879 6.48015 18.2998 6.76165 18.3H16.5383C16.8198 18.2998 17.0898 18.1879 17.2888 17.9888C17.4879 17.7898 17.5998 17.5199 17.6 17.2384V11.1498C17.6 10.9244 17.6896 10.7082 17.849 10.5488Z" fill="white"/>
</svg>
