<svg width="42" height="40" viewBox="0 0 42 40" fill="none" xmlns="http://www.w3.org/2000/svg">
<path d="M25.8638 3.497L27.3077 7.89983C27.9931 9.99297 29.962 11.3932 32.1788 11.3932H36.8603C41.819 11.3932 43.8754 17.6727 39.8647 20.5598L36.0728 23.2881C34.2789 24.5728 33.5351 26.8681 34.2206 28.9468L35.6644 33.3496C37.1958 38.0123 31.7996 41.8954 27.789 39.0083L23.9971 36.28C22.2032 34.9953 19.7822 34.9953 17.9884 36.28L14.1965 39.0083C10.1858 41.8954 4.78964 38.0123 6.32098 33.3496L7.76481 28.9468C8.45027 26.8536 7.70648 24.5728 5.91262 23.2881L2.12073 20.5598C-1.88993 17.6727 0.166438 11.3932 5.12507 11.3932H9.80661C12.0234 11.3932 13.9923 9.97854 14.6777 7.89983L16.1216 3.497C17.6529 -1.16567 24.3179 -1.16567 25.8493 3.497H25.8638Z" fill="#EFCA2E"/>
<path opacity="0.25" d="M32.6162 11.3932H32.1786C29.9618 11.3932 27.993 9.97854 27.3075 7.89983L25.8637 3.497C24.3323 -1.16567 17.6673 -1.16567 16.136 3.497L14.6921 7.89983C14.0067 9.99297 12.0378 11.3932 9.82102 11.3932H5.13949C0.180851 11.3932 -1.87553 17.6727 2.13513 20.5598L5.92702 23.2881C7.05001 24.0965 7.75005 25.2802 7.96882 26.5649C14.5463 19.4771 23.0343 14.1648 32.6162 11.4077V11.3932Z" fill="white"/>
<path style="mix-blend-mode:screen" opacity="0.49" d="M7.77945 28.9468L6.33561 33.3496C4.80427 38.0123 10.2004 41.8955 14.2111 39.0084L18.003 36.2801C19.7968 34.9953 22.2178 34.9953 24.0117 36.2801L27.8036 39.0084C31.8142 41.8955 37.2104 38.0123 35.6791 33.3496L34.2352 28.9468C33.5498 26.8537 34.2936 24.5729 36.0874 23.2881L39.8793 20.5598C43.89 17.6727 41.8336 11.3932 36.875 11.3932H32.631C23.0491 14.1649 14.5611 19.4771 7.98362 26.5505C8.11488 27.33 8.05654 28.1529 7.80861 28.9324L7.77945 28.9468Z" fill="url(#paint0_linear_2407_3492)"/>
<defs>
<linearGradient id="paint0_linear_2407_3492" x1="16.7487" y1="16.8787" x2="35.9945" y2="40.6453" gradientUnits="userSpaceOnUse">
<stop stop-color="white"/>
<stop offset="1"/>
</linearGradient>
</defs>
</svg>
