<svg width="42" height="40" viewBox="0 0 42 40" fill="none" xmlns="http://www.w3.org/2000/svg">
<path opacity="0.5" d="M25.8728 3.497L27.3172 7.89983C28.0029 9.99297 29.9724 11.3932 32.19 11.3932H36.8731C41.8335 11.3932 43.8906 17.6727 39.8785 20.5598L36.0853 23.2881C34.2909 24.5728 33.5468 26.8681 34.2325 28.9468L35.6768 33.3496C37.2087 38.0123 31.8107 41.8954 27.7986 39.0083L24.0054 36.28C22.2109 34.9953 19.7891 34.9953 17.9946 36.28L14.2014 39.0083C10.1893 41.8954 4.7913 38.0123 6.32318 33.3496L7.76752 28.9468C8.45322 26.8536 7.70916 24.5728 5.91468 23.2881L2.12146 20.5598C-1.89059 17.6727 0.166496 11.3932 5.12685 11.3932H9.81001C12.0276 11.3932 13.9971 9.97854 14.6828 7.89983L16.1272 3.497C17.6591 -1.16567 24.3264 -1.16567 25.8582 3.497H25.8728Z" fill="#D3D3D3"/>
</svg>
