<svg width="24" height="24" viewBox="0 0 24 24" fill="none" xmlns="http://www.w3.org/2000/svg">
<path d="M5.11681 15.7929L5.11682 15.7929C5.15713 15.549 5.13959 15.2986 5.06573 15.0633C4.99188 14.828 4.86396 14.615 4.69316 14.4426L4.69313 14.4426L2.85651 12.5855L5.11681 15.7929ZM5.11681 15.7929L4.68652 18.4122L4.73585 18.4203M5.11681 15.7929L4.73585 18.4203M4.73585 18.4203L5.16615 15.801M4.73585 18.4203C4.66376 18.8593 4.68487 19.3093 4.79771 19.739C4.91056 20.1687 5.11242 20.5677 5.38926 20.9084C5.6661 21.2491 6.01128 21.5233 6.40078 21.7118L5.16615 15.801M4.73585 18.4203L4.68651 18.4122C4.61329 18.8581 4.63473 19.3152 4.74935 19.7517C4.86398 20.1882 5.06907 20.5937 5.35046 20.94C5.63185 21.2863 5.98281 21.565 6.379 21.7568C6.77519 21.9485 7.20705 22.0486 7.64451 22.05L7.64477 22.05C8.13361 22.049 8.61475 21.9244 9.04642 21.6873M4.73585 18.4203L9.04642 21.6873M5.16615 15.801C5.20774 15.5494 5.18965 15.2911 5.11344 15.0483M5.16615 15.801L5.11344 15.0483M9.04642 21.6873L11.3203 20.4528L11.3203 20.4528C11.5312 20.3382 11.7657 20.2783 12.0036 20.2783C12.2415 20.2783 12.4759 20.3382 12.6868 20.4528L9.04642 21.6873ZM12.0006 3.53549L11.9994 3.53551C11.7251 3.53218 11.4554 3.6101 11.2222 3.76028C10.9889 3.91046 10.8017 4.12672 10.6828 4.38378L10.6825 4.38429L9.54726 6.76732L9.54726 6.76732C9.33196 7.21916 9.01377 7.61021 8.61994 7.90668C8.2261 8.20316 7.76845 8.39615 7.28637 8.46887L7.28635 8.46887L4.7476 8.85069C4.47647 8.89154 4.22156 9.01012 4.01173 9.19329C3.80188 9.37647 3.64546 9.61697 3.56037 9.88774C3.47528 10.1585 3.46498 10.4486 3.53064 10.7251C3.59631 11.0017 3.73527 11.2535 3.93162 11.4522L5.76896 13.3093C5.76896 13.3093 5.76897 13.3093 5.76897 13.3093C6.11719 13.661 6.37761 14.0949 6.528 14.5737C6.67838 15.0524 6.71427 15.5617 6.63261 16.058C6.6326 16.058 6.6326 16.058 6.6326 16.058L6.20231 18.6772L6.2023 18.6772C6.15604 18.9579 6.18646 19.2463 6.29007 19.5098C6.39367 19.7733 6.56625 20.0014 6.7881 20.1683C7.00992 20.3353 7.27221 20.4345 7.54531 20.455C7.81841 20.4756 8.09169 20.4166 8.33434 20.2847C8.33435 20.2847 8.33435 20.2847 8.33436 20.2847L10.6048 19.0487L12.0006 3.53549ZM12.0006 3.53549C12.2749 3.53218 12.5446 3.6101 12.7778 3.76028C13.0111 3.91046 13.1983 4.12672 13.3172 4.38378L13.3175 4.38437L14.457 6.76509L12.0006 3.53549ZM17.371 16.058L17.371 16.058C17.2889 15.5615 17.3245 15.0518 17.4747 14.5726C17.625 14.0934 17.8855 13.6591 18.2339 13.307L20.0713 11.45C20.2676 11.2514 20.4066 10.9998 20.4723 10.7234C20.5381 10.447 20.528 10.157 20.4431 9.88631C20.3583 9.6156 20.2021 9.37508 19.9925 9.19176C19.783 9.00847 19.5284 8.88965 19.2574 8.84846L17.371 16.058ZM17.371 16.058L17.8049 18.6772C17.8511 18.9579 17.8207 19.2463 17.7171 19.5098C17.6135 19.7733 17.4409 20.0014 17.2191 20.1683C16.9972 20.3353 16.735 20.4345 16.4619 20.455C16.1888 20.4756 15.9155 20.4166 15.6728 20.2847C15.6728 20.2847 15.6728 20.2847 15.6728 20.2847L13.4024 19.0487L17.371 16.058ZM5.11344 15.0483C5.03723 14.8056 4.90518 14.5856 4.72868 14.4074L5.11344 15.0483ZM12.6868 20.4528L14.9573 21.6896L14.9573 21.6896C15.4536 21.9596 16.0131 22.0806 16.5725 22.0386C17.1318 21.9967 17.6685 21.7935 18.122 21.4523C18.5754 21.1111 18.9274 20.6456 19.1385 20.1084C19.3496 19.5712 19.4114 18.9837 19.3171 18.4121L19.3171 18.4121L18.8832 15.7929C18.8429 15.549 18.8604 15.2986 18.9343 15.0633C19.0081 14.828 19.136 14.615 19.3068 14.4426L19.3069 14.4426L21.1435 12.5855L21.1435 12.5855L12.6868 20.4528ZM19.4752 7.28246L16.9358 6.89991L16.9358 6.89991C16.7003 6.86454 16.4765 6.77034 16.2838 6.62528C16.0911 6.48021 15.9351 6.28862 15.8296 6.06692L14.6958 3.68389L14.6958 3.68387C14.4479 3.16373 14.0643 2.72554 13.5883 2.41904C13.1122 2.11253 12.5626 1.95 12.0018 1.95C11.4409 1.95 10.8914 2.11253 10.4153 2.41904C9.93925 2.72554 9.5557 3.16373 9.30781 3.68387L9.30781 3.68388L8.17328 6.06685C8.06723 6.28887 7.9107 6.48064 7.71735 6.62572C7.524 6.77079 7.29962 6.86484 7.06359 6.89989L7.06349 6.89991L4.5248 7.28246H19.4752ZM16.718 8.46664L19.2574 8.84845L14.4571 6.76517C14.6724 7.21698 14.9906 7.608 15.3844 7.90446C15.7782 8.20093 16.2359 8.39392 16.7179 8.46664L16.718 8.46664ZM2.03725 11.1036C2.17135 11.6669 2.45505 12.1803 2.85648 12.5855L4.52473 7.28247C3.96942 7.36535 3.44779 7.60756 3.01884 7.98147C2.58989 8.35538 2.27077 8.84602 2.09737 9.39773C1.92397 9.94942 1.90315 10.5403 2.03725 11.1036ZM12.0036 18.6899C11.516 18.6899 11.0359 18.8131 10.6049 19.0486H13.4023C12.9713 18.8131 12.4911 18.6899 12.0036 18.6899Z" fill="white" stroke="white" stroke-width="0.1"/>
</svg>
