<svg width="22" height="16" viewBox="0 0 22 16" fill="none" xmlns="http://www.w3.org/2000/svg">
<g id="Group">
<g id="Group_2">
<path id="Vector" d="M18.7937 1H5.95571C4.73911 1 3.74934 2.09541 3.74934 3.44187V6.97063H1.63176C1.28285 6.97063 1 7.28371 1 7.66986C1 8.05601 1.28285 8.36905 1.63176 8.36905H3.74934V10.2464H2.69282C2.34391 10.2464 2.06106 10.5594 2.06106 10.9456C2.06106 11.3317 2.34391 11.6448 2.69282 11.6448H3.7493V12.5581C3.7493 13.9046 4.73907 15 5.95567 15H18.7936C20.0102 15 21 13.9046 21 12.5581V3.44191C21 2.09545 20.0103 1 18.7937 1ZM5.95571 2.39842H18.7937C19.0177 2.39842 19.2237 2.48553 19.3856 2.63053L13.2539 7.61029C12.7362 8.03067 12.0131 8.03067 11.4955 7.61029L5.36376 2.63053C5.52567 2.48553 5.73165 2.39842 5.95571 2.39842ZM19.7365 12.5581C19.7365 13.1335 19.3136 13.6016 18.7937 13.6016H5.95571C5.43583 13.6016 5.01286 13.1335 5.01286 12.5581V11.6448H7.39185C7.74076 11.6448 8.02361 11.3317 8.02361 10.9456C8.02361 10.5594 7.74076 10.2464 7.39185 10.2464H5.01286V4.08006L10.748 8.73769C11.2269 9.12669 11.8007 9.32106 12.3747 9.32106C12.9485 9.32106 13.5225 9.1266 14.0013 8.73769L19.7365 4.08006L19.7365 12.5581Z" fill="white" stroke="white" stroke-width="0.1"/>
</g>
</g>
</svg>
