<svg width="24" height="24" viewBox="0 0 24 24" fill="none" xmlns="http://www.w3.org/2000/svg">
<path d="M14.4 13.7904C12.64 10.6716 7.80005 12.5753 7.80005 12.5753V19.7849C7.80005 19.7849 12.64 17.8812 14.4 21V13.7904Z" stroke="white" stroke-width="1.5" stroke-miterlimit="10" stroke-linecap="round" stroke-linejoin="round"/>
<path d="M14.4 13.7904C16.16 10.6716 21 12.5752 21 12.5752V19.7849C21 19.7849 16.16 17.8812 14.4 21V13.7904Z" stroke="white" stroke-width="1.5" stroke-miterlimit="10" stroke-linecap="round" stroke-linejoin="round"/>
<path d="M12 16.914C11.3992 16.7909 10.7762 16.7857 10.2 16.8381" stroke="white" stroke-width="1.5" stroke-miterlimit="10" stroke-linecap="round" stroke-linejoin="round"/>
<path d="M16.8 16.914C17.4008 16.7909 18.0238 16.7857 18.6 16.8381" stroke="white" stroke-width="1.5" stroke-miterlimit="10" stroke-linecap="round" stroke-linejoin="round"/>
<path d="M12 14.5107C11.3992 14.3876 10.7762 14.3824 10.2 14.4347" stroke="white" stroke-width="1.5" stroke-miterlimit="10" stroke-linecap="round" stroke-linejoin="round"/>
<path d="M16.8 14.5107C17.4008 14.3876 18.0238 14.3824 18.6 14.4347" stroke="white" stroke-width="1.5" stroke-miterlimit="10" stroke-linecap="round" stroke-linejoin="round"/>
<path d="M9.59998 10.2001V6.6001L12.9 8.4001L9.59998 10.2001Z" stroke="white" stroke-width="1.5" stroke-miterlimit="10" stroke-linecap="round" stroke-linejoin="round"/>
<path d="M7.79999 13.8H3V3H18.6V11.8403" stroke="white" stroke-width="1.5" stroke-miterlimit="10" stroke-linecap="round" stroke-linejoin="round"/>
</svg>
