<svg width="20" height="20" viewBox="0 0 20 20" fill="none" xmlns="http://www.w3.org/2000/svg">
<path d="M6.25 7.75001C6.25 6.92159 6.92159 6.25 7.75001 6.25C8.57843 6.25 9.24999 6.92159 9.24999 7.75001C9.24999 8.57847 8.57843 9.25002 7.75001 9.25002C6.92155 9.25002 6.25 8.57847 6.25 7.75001Z" fill="white"/>
<path fill-rule="evenodd" clip-rule="evenodd" d="M1.88066 14.7953C1.71504 14.9489 1.44466 14.8781 1.3927 14.6582C1.10642 13.4467 1 11.9184 1 10C1 2.5885 2.5885 1 10 1C17.4115 1 19 2.5885 19 10C19 10.0248 19 10.0494 18.9999 10.0741C18.9999 10.0769 18.9971 10.0787 18.9945 10.0776C18.5206 9.86163 17.8481 9.60949 17.0642 9.47508C15.4754 9.20269 13.4023 9.41922 11.6855 11.3812C10.2175 13.0589 9.58456 13.1924 9.11002 13.1622C8.85591 13.1461 8.61277 13.0821 8.25604 12.9883C8.14832 12.96 8.03027 12.9289 7.89843 12.8956C7.36374 12.7606 6.71113 12.625 5.87498 12.625C5.22205 12.625 4.57476 12.8802 4.01852 13.1871C3.45032 13.5005 2.90491 13.9088 2.43873 14.3013C2.23982 14.4689 2.05244 14.636 1.88066 14.7953ZM4.75001 7.75C4.75001 6.09316 6.09316 4.75001 7.75 4.75001C9.40688 4.75001 10.75 6.09316 10.75 7.75C10.75 9.40681 9.40688 10.75 7.75 10.75C6.09316 10.75 4.75001 9.40681 4.75001 7.75Z" fill="white"/>
<path d="M2.34311 16.4382C2.24604 16.5375 2.23149 16.6917 2.31351 16.8036C3.56275 18.5098 5.88295 18.9999 9.99996 18.9999C16.7807 18.9999 18.6874 17.6702 18.9628 11.7681C18.9633 11.7584 18.9585 11.7489 18.9503 11.7438L18.9388 11.7368C18.9147 11.7222 18.8764 11.6995 18.825 11.6707C18.7221 11.6129 18.568 11.5315 18.3727 11.4424C17.9795 11.2633 17.4332 11.0601 16.8108 10.9534C15.587 10.7436 14.0978 10.9022 12.8144 12.3688C11.2825 14.1197 10.228 14.7362 9.01499 14.6591C8.60018 14.6328 8.17328 14.5193 7.79278 14.4182C7.70275 14.3943 7.61528 14.3711 7.53122 14.3498C7.05809 14.2304 6.53883 14.1249 5.87497 14.1249C5.59042 14.1249 5.20644 14.2448 4.74315 14.5003C4.29182 14.7494 3.82941 15.0911 3.40497 15.4486C2.98313 15.8039 2.61434 16.1612 2.35031 16.4309C2.34792 16.4333 2.3455 16.4358 2.34311 16.4382Z" fill="white"/>
</svg>
