<svg width="20" height="20" viewBox="0 0 20 20" fill="none" xmlns="http://www.w3.org/2000/svg">
<g id="widget">
<g id="Layer 2">
<path id="Vector" d="M18.3333 7.6745L18.3333 3.02334C18.3333 2.27411 17.726 1.66675 16.9767 1.66675L10 1.66675C9.25078 1.66675 8.64341 2.27411 8.64341 3.02334L8.64341 7.6745C8.64341 8.42372 9.25078 9.03109 10 9.03109L16.9767 9.03109C17.726 9.03109 18.3333 8.42372 18.3333 7.6745Z" fill="white"/>
<path id="Vector_2" d="M7.48062 7.6745L7.48062 3.02334C7.48062 2.27411 6.87326 1.66675 6.12403 1.66675L3.02326 1.66675C2.27403 1.66675 1.66667 2.27411 1.66667 3.02334L1.66667 7.6745C1.66667 8.42372 2.27403 9.03109 3.02326 9.03109L6.12403 9.03109C6.87326 9.03109 7.48062 8.42372 7.48062 7.6745Z" fill="white"/>
<path id="Vector_3" d="M11.3566 16.9767L11.3566 12.3256C11.3566 11.5764 10.7492 10.969 10 10.969L3.02326 10.969C2.27403 10.969 1.66667 11.5764 1.66667 12.3256L1.66667 16.9767C1.66667 17.726 2.27403 18.3333 3.02326 18.3333L10 18.3333C10.7492 18.3333 11.3566 17.726 11.3566 16.9767Z" fill="white"/>
<path id="Vector_4" d="M18.3333 16.9767L18.3333 12.3256C18.3333 11.5764 17.726 10.969 16.9767 10.969L13.876 10.969C13.1267 10.969 12.5194 11.5764 12.5194 12.3256L12.5194 16.9767C12.5194 17.726 13.1267 18.3333 13.876 18.3333L16.9767 18.3333C17.726 18.3333 18.3333 17.726 18.3333 16.9767Z" fill="white"/>
</g>
</g>
</svg>
